<svg width="444" height="270" viewBox="0 0 444 270" fill="none" xmlns="http://www.w3.org/2000/svg">
<g clip-path="url(#clip0_1417_4267)">
<rect y="0.920898" width="444" height="268.158" rx="6.31579" fill="white"/>
<g filter="url(#filter0_b_1417_4267)">
<rect width="444" height="49.8947" transform="translate(0 0.920898)" fill="url(#paint0_linear_1417_4267)"/>
<path d="M27.8652 33.7631H35.0241C35.4146 33.7631 35.7311 33.4541 35.7311 33.0729V27.1465C35.7311 26.5316 36.4927 26.2236 36.9381 26.6584L44.0086 33.5609C44.1411 33.6904 44.321 33.7631 44.5085 33.7631H49.4301C49.8206 33.7631 50.1371 33.4541 50.1371 33.0729V25.6797C50.1371 25.4967 50.0626 25.3211 49.93 25.1917L42.7435 18.1758C42.6109 18.0464 42.4311 17.9736 42.2435 17.9736H36.4382C36.0477 17.9736 35.7311 18.2827 35.7311 18.6639V24.7036C35.7311 25.0848 35.4146 25.3938 35.0241 25.3938H27.8652C27.4748 25.3938 27.1582 25.7029 27.1582 26.0841V33.0729C27.1582 33.4541 27.4748 33.7631 27.8652 33.7631Z" fill="white"/>
<path d="M111.334 33.714C109.744 33.714 108.339 33.3807 107.117 32.7139C105.896 32.0327 104.939 31.1051 104.248 29.9311C103.556 28.7426 103.21 27.3874 103.21 25.8655C103.21 24.3291 103.556 22.9739 104.248 21.7999C104.939 20.6114 105.888 19.6838 107.095 19.0171C108.317 18.3358 109.715 17.9952 111.289 17.9952C112.864 17.9952 114.255 18.3358 115.461 19.0171C116.683 19.6838 117.64 20.6114 118.331 21.7999C119.023 22.9739 119.369 24.3291 119.369 25.8655C119.369 27.3874 119.023 28.7426 118.331 29.9311C117.654 31.1051 116.712 32.0327 115.506 32.7139C114.299 33.3807 112.908 33.714 111.334 33.714ZM111.334 30.4963C112.202 30.4963 112.967 30.3007 113.629 29.9093C114.292 29.518 114.807 28.9745 115.175 28.2788C115.542 27.5685 115.726 26.7641 115.726 25.8655C115.726 24.9524 115.535 24.148 115.152 23.4522C114.77 22.742 114.247 22.1913 113.585 21.7999C112.923 21.3941 112.158 21.1912 111.289 21.1912C110.421 21.1912 109.656 21.3941 108.994 21.7999C108.331 22.1913 107.809 22.742 107.426 23.4522C107.044 24.148 106.852 24.9524 106.852 25.8655C106.852 26.7641 107.044 27.5685 107.426 28.2788C107.809 28.9745 108.339 29.518 109.016 29.9093C109.693 30.3007 110.465 30.4963 111.334 30.4963Z" fill="white"/>
<path d="M90.8624 32.7141C92.0839 33.3808 93.4893 33.7142 95.0787 33.7142C96.4621 33.7142 97.6762 33.4533 98.7211 32.9315C99.7659 32.4097 100.59 31.6415 101.193 30.6269C101.797 29.5979 102.098 28.3441 102.098 26.8657V25.4819C102.098 25.2736 101.927 25.1047 101.716 25.1047H95.5721C95.3606 25.1047 95.1891 25.2736 95.1891 25.4819V27.4234C95.1891 27.6317 95.3606 27.8006 95.5721 27.8006H98.2769C98.5041 27.8006 98.6839 27.9955 98.6299 28.2129C98.5537 28.5205 98.4295 28.8034 98.2575 29.0616C97.9484 29.5254 97.529 29.8877 96.9992 30.1486C96.4694 30.4095 95.8587 30.54 95.167 30.54C94.2546 30.54 93.4526 30.3371 92.7609 29.9312C92.0692 29.5254 91.5394 28.9746 91.1715 28.2789C90.8036 27.5687 90.6196 26.757 90.6196 25.8439C90.6196 24.9308 90.8109 24.1264 91.1936 23.4306C91.5762 22.7204 92.0986 22.1697 92.7609 21.7783C93.4378 21.387 94.2104 21.1913 95.0787 21.1913C95.5202 21.1913 95.9544 21.271 96.3811 21.4305C96.8079 21.5754 97.1979 21.7856 97.5511 22.061C97.809 22.254 98.0308 22.4649 98.2164 22.6936C98.3469 22.8543 98.5777 22.9108 98.7567 22.8047L101.039 21.4527C101.221 21.3446 101.28 21.1102 101.159 20.938C100.8 20.4289 100.37 19.9699 99.8689 19.5607C99.2656 19.0679 98.5592 18.6838 97.7498 18.4085C96.9551 18.1186 96.0647 17.9736 95.0787 17.9736C93.4893 17.9736 92.0839 18.3142 90.8624 18.9955C89.6557 19.6622 88.7065 20.5898 88.0148 21.7783C87.3231 22.9523 86.9773 24.3075 86.9773 25.8439C86.9773 27.3803 87.3231 28.7427 88.0148 29.9312C88.7065 31.1052 89.6557 32.0329 90.8624 32.7141Z" fill="white"/>
<path d="M77.6178 33.714C76.0284 33.714 74.6229 33.3807 73.4015 32.7139C72.18 32.0327 71.2234 31.1051 70.5318 29.9311C69.8401 28.7426 69.4942 27.3874 69.4942 25.8655C69.4942 24.3291 69.8401 22.9739 70.5318 21.7999C71.2234 20.6114 72.1726 19.6838 73.3794 19.0171C74.6009 18.3358 75.9989 17.9952 77.5736 17.9952C79.1483 17.9952 80.539 18.3358 81.7457 19.0171C82.9672 19.6838 83.9238 20.6114 84.6155 21.7999C85.3071 22.9739 85.653 24.3291 85.653 25.8655C85.653 27.3874 85.3071 28.7426 84.6155 29.9311C83.9385 31.1051 82.9966 32.0327 81.7899 32.7139C80.5831 33.3807 79.1924 33.714 77.6178 33.714ZM77.6178 30.4963C78.486 30.4963 79.2513 30.3007 79.9135 29.9093C80.5758 29.518 81.0909 28.9745 81.4588 28.2788C81.8267 27.5685 82.0106 26.7641 82.0106 25.8655C82.0106 24.9524 81.8193 24.148 81.4367 23.4522C81.0541 22.742 80.5316 22.1913 79.8694 21.7999C79.2071 21.3941 78.4419 21.1912 77.5736 21.1912C76.7053 21.1912 75.9401 21.3941 75.2778 21.7999C74.6156 22.1913 74.0932 22.742 73.7105 23.4522C73.3279 24.148 73.1366 24.9524 73.1366 25.8655C73.1366 26.7641 73.3279 27.5685 73.7105 28.2788C74.0932 28.9745 74.6229 29.518 75.2999 29.9093C75.9769 30.3007 76.7495 30.4963 77.6178 30.4963Z" fill="white"/>
<path d="M58.9457 33.4531C58.7342 33.4531 58.5627 33.2843 58.5627 33.0759V18.6116C58.5627 18.4032 58.7342 18.2344 58.9457 18.2344H61.7338C61.9453 18.2344 62.1168 18.4032 62.1168 18.6116V29.8583C62.1168 30.0666 62.2882 30.2354 62.4998 30.2354H68.3121C68.5236 30.2354 68.6951 30.4043 68.6951 30.6126V33.0759C68.6951 33.2843 68.5236 33.4531 68.3121 33.4531H58.9457Z" fill="white"/>
<g clip-path="url(#clip1_1417_4267)">
<path d="M443.321 -92.5527L546.316 35.6479L358.155 186.815L255.16 58.614L443.321 -92.5527Z" fill="white" fill-opacity="0.03"/>
<path d="M457.216 -81.1845L560.211 47.0161L372.05 198.183L269.055 69.9822L457.216 -81.1845Z" fill="white" fill-opacity="0.04"/>
<path d="M469.847 -69.8159L572.842 58.3848L384.68 209.551L281.686 81.3508L469.847 -69.8159Z" fill="white" fill-opacity="0.08"/>
</g>
</g>
<rect x="27.7891" y="82.1318" width="108.632" height="126.316" rx="3.15789" fill="#D9D9D9"/>
<path d="M55.1104 230.834C54.9807 230.81 54.851 230.828 54.7213 230.887C54.5916 230.946 54.462 230.987 54.3323 231.011C54.2026 231.034 54.067 230.987 53.9255 230.869C53.8902 230.81 53.8548 230.757 53.8194 230.71C53.7841 230.651 53.7605 230.598 53.7487 230.551C53.6308 229.608 53.5483 228.682 53.5011 227.775C53.454 226.867 53.4009 226.065 53.342 225.369C53.2712 224.485 53.2005 223.636 53.1298 222.823C53.059 222.009 52.8999 221.167 52.6523 220.294C52.6994 219.976 52.7643 219.693 52.8468 219.445C52.9411 219.186 53.171 218.968 53.5365 218.791C54.2674 218.661 54.9925 218.62 55.7116 218.667C56.4426 218.703 57.1676 218.803 57.8868 218.968C58.7239 219.156 59.3251 219.487 59.6906 219.958C60.0561 220.43 60.0855 221.055 59.779 221.833C59.6965 222.057 59.5314 222.304 59.2839 222.575C59.0363 222.847 58.8653 223.088 58.771 223.3C58.7828 223.395 58.8359 223.465 58.9302 223.513C59.0363 223.56 59.1542 223.595 59.2839 223.619C59.4135 223.631 59.5138 223.654 59.5845 223.689C59.9146 223.796 60.227 223.925 60.5218 224.079C60.8283 224.22 61.1112 224.403 61.3706 224.627C61.7125 224.898 61.9483 225.134 62.078 225.334C62.2194 225.535 62.2784 225.841 62.2548 226.254C62.2194 226.831 62.0367 227.344 61.7066 227.792C61.4826 228.122 61.2232 228.423 60.9285 228.694C60.6338 228.953 60.3036 229.172 59.9382 229.348C59.6906 229.478 59.443 229.602 59.1954 229.72C58.9479 229.826 58.6944 229.926 58.435 230.02C58.0106 230.185 57.5803 230.345 57.1441 230.498C56.7079 230.639 56.2658 230.793 55.8178 230.958L55.1104 230.834ZM54.9866 229.826C55.0573 229.826 55.1575 229.832 55.2872 229.844C55.4169 229.844 55.523 229.838 55.6055 229.826C56.195 229.661 56.7727 229.472 57.3386 229.26C57.9163 229.048 58.4763 228.812 59.0186 228.553C59.1836 228.482 59.3369 228.388 59.4784 228.27C59.6316 228.152 59.7849 228.034 59.9382 227.916C60.2211 227.692 60.4569 227.421 60.6455 227.103C60.8342 226.772 60.9108 226.436 60.8754 226.095C60.8401 225.741 60.6279 225.417 60.2388 225.122C60.1445 225.039 59.9735 224.921 59.726 224.768C59.4902 224.615 59.2072 224.491 58.8771 224.397C58.547 224.303 58.1933 224.308 57.8161 224.415L55.9415 225.104C55.7175 225.033 55.5761 224.969 55.5171 224.91C55.47 224.851 55.4523 224.674 55.4641 224.379C55.5348 224.308 55.6055 224.226 55.6763 224.132C55.747 224.037 55.8354 223.961 55.9415 223.902C56.0594 223.807 56.1832 223.725 56.3129 223.654C56.4544 223.572 56.59 223.501 56.7196 223.442C57.0733 223.289 57.3975 223.082 57.6923 222.823C57.987 222.564 58.2287 222.275 58.4173 221.956C58.5942 221.673 58.6944 221.426 58.718 221.214C58.7533 221.001 58.6708 220.742 58.4704 220.436C58.4114 220.377 58.3466 220.324 58.2759 220.276C58.2051 220.217 58.1285 220.17 58.046 220.135C57.7866 220.029 57.5095 219.964 57.2148 219.94C56.7904 219.905 56.3424 219.881 55.8708 219.87C55.411 219.858 54.9689 219.881 54.5445 219.94C54.462 219.952 54.3735 219.982 54.2792 220.029C54.1967 220.076 54.1083 220.117 54.014 220.153C53.955 220.483 53.9491 220.807 53.9963 221.125C54.0434 221.444 54.0906 221.709 54.1378 221.921C54.2321 222.322 54.2969 222.811 54.3323 223.389C54.3676 223.955 54.403 224.503 54.4384 225.033C54.4855 225.576 54.5386 226.224 54.5975 226.979C54.6565 227.733 54.7154 228.505 54.7744 229.295C54.7744 229.343 54.798 229.425 54.8451 229.543C54.9041 229.649 54.9512 229.743 54.9866 229.826ZM65.1694 230.852C64.9572 230.958 64.7685 230.969 64.6035 230.887C64.4502 230.804 64.3382 230.639 64.2675 230.392C64.185 230.121 64.1791 229.908 64.2498 229.755C64.3205 229.59 64.4856 229.455 64.745 229.348C64.8393 229.325 64.9454 229.295 65.0633 229.26C65.1812 229.225 65.3226 229.183 65.4877 229.136C65.5584 229.195 65.6528 229.26 65.7706 229.331C65.9003 229.39 66.0005 229.484 66.0713 229.614C66.142 229.791 66.1361 229.967 66.0536 230.144C65.9711 230.309 65.865 230.439 65.7353 230.533C65.6528 230.616 65.5584 230.675 65.4523 230.71C65.358 230.745 65.2637 230.793 65.1694 230.852ZM81.7573 230.781C81.5333 230.769 81.3683 230.698 81.2622 230.569C81.1678 230.427 81.103 230.297 81.0676 230.18C80.8318 229.307 80.6078 228.429 80.3956 227.545C80.1952 226.649 79.9771 225.764 79.7413 224.892C79.5645 224.244 79.3699 223.601 79.1577 222.964C78.9573 222.328 78.7333 221.703 78.4857 221.09C78.2853 220.607 78.0672 220.359 77.8314 220.347C77.5956 220.335 77.3186 220.536 77.0003 220.948C76.5287 221.561 76.1868 222.228 75.9746 222.947C75.7742 223.666 75.5619 224.385 75.3379 225.104C75.2672 225.352 75.167 225.623 75.0373 225.918C74.9076 226.201 74.7485 226.372 74.5598 226.431C74.2297 226.537 73.9586 226.472 73.7464 226.236C73.5342 225.988 73.3514 225.717 73.1982 225.423C72.868 224.727 72.5262 224.037 72.1725 223.353C71.8306 222.658 71.471 221.974 71.0937 221.302C71.0112 221.161 70.9051 220.99 70.7754 220.789C70.6457 220.577 70.4394 220.329 70.1565 220.047C70.1565 220.66 70.1683 221.308 70.1918 221.992C70.2154 222.676 70.1977 223.324 70.1388 223.937C70.0798 224.786 69.9914 225.635 69.8735 226.484C69.7556 227.332 69.6436 228.181 69.5375 229.03C69.5139 229.266 69.4314 229.466 69.2899 229.631C69.1485 229.785 68.948 229.826 68.6887 229.755C68.4529 229.696 68.3114 229.578 68.2643 229.401C68.2171 229.213 68.223 228.989 68.2819 228.729C68.9068 226.124 69.172 223.489 69.0777 220.825C69.0659 220.601 69.0483 220.377 69.0247 220.153C69.0011 219.929 68.9952 219.705 69.007 219.481C69.0188 219.316 69.06 219.115 69.1308 218.879C69.2015 218.644 69.2605 218.526 69.3076 218.526C69.5434 218.537 69.791 218.561 70.0504 218.596C70.3215 218.632 70.516 218.726 70.6339 218.879C71.0466 219.41 71.4356 219.958 71.8011 220.524C72.1784 221.09 72.5379 221.668 72.8798 222.257C73.1038 222.623 73.2984 223.006 73.4634 223.407C73.6403 223.807 73.823 224.208 74.0116 224.609L74.2238 224.556C74.3535 224.167 74.4714 223.772 74.5775 223.371C74.6954 222.97 74.831 222.587 74.9843 222.222C75.1493 221.821 75.332 221.426 75.5325 221.037C75.7447 220.648 75.9746 220.271 76.2222 219.905C76.5994 219.351 77.0533 219.068 77.5838 219.056C78.1144 219.033 78.5859 219.298 78.9986 219.852C79.5527 220.571 79.9771 221.349 80.2718 222.186C80.5784 223.023 80.8083 223.89 80.9615 224.786C81.103 225.623 81.2622 226.46 81.439 227.297C81.6158 228.122 81.7809 228.953 81.9342 229.791C81.9577 229.944 81.9636 230.115 81.9518 230.303C81.9518 230.492 81.887 230.651 81.7573 230.781ZM86.2483 223.831C86.1657 223.831 86.0773 223.796 85.983 223.725C85.7472 223.524 85.5055 223.318 85.258 223.106C85.0222 222.882 84.8217 222.605 84.6567 222.275C84.8571 222.027 85.0457 221.903 85.2226 221.903C85.3641 221.903 85.4996 221.986 85.6293 222.151C85.8887 222.41 86.1127 222.623 86.3013 222.788C86.49 222.941 86.5843 223.141 86.5843 223.389C86.5843 223.519 86.5489 223.625 86.4782 223.707C86.4192 223.79 86.3426 223.831 86.2483 223.831ZM85.4525 230.993C85.311 231.076 85.1813 231.034 85.0634 230.869C84.9455 230.716 84.8512 230.516 84.7805 230.268C84.7097 230.009 84.6626 229.796 84.639 229.631C84.5801 229.113 84.527 228.6 84.4799 228.093C84.4445 227.574 84.4032 227.055 84.3561 226.537L84.4799 225.228C84.5034 225.004 84.5801 224.833 84.7097 224.715C84.8512 224.597 85.0104 224.55 85.1872 224.574C85.3405 224.585 85.4761 224.662 85.594 224.804C85.7119 224.945 85.7767 225.122 85.7885 225.334C85.7885 225.417 85.7767 225.511 85.7531 225.617C85.7295 225.711 85.7177 225.812 85.7177 225.918C85.7177 226.637 85.7177 227.356 85.7177 228.075C85.7177 228.794 85.7236 229.513 85.7354 230.233C85.7354 230.445 85.7001 230.616 85.6293 230.745C85.5704 230.875 85.5114 230.958 85.4525 230.993ZM91.0687 231.807C90.9744 231.842 90.8742 231.836 90.7681 231.789C90.662 231.753 90.5854 231.712 90.5382 231.665C90.3614 231.406 90.1786 231.146 89.99 230.887C89.8132 230.639 89.6658 230.374 89.5479 230.091C89.3121 229.537 89.153 228.965 89.0704 228.376C88.9879 227.775 88.9348 227.173 88.9113 226.572C88.8641 225.216 88.8228 223.866 88.7875 222.522C88.7639 221.167 88.7344 219.811 88.6991 218.455C88.6637 218.031 88.8641 217.818 89.3003 217.818C89.5007 217.818 89.6658 217.901 89.7955 218.066C89.937 218.231 90.0077 218.42 90.0077 218.632L89.937 222.469C89.9959 223.353 90.0431 224.238 90.0784 225.122C90.1138 226.006 90.1727 226.89 90.2553 227.775C90.3024 228.329 90.385 228.889 90.5028 229.455C90.6207 230.009 90.8388 230.527 91.1572 231.011C91.2397 231.105 91.2633 231.229 91.2279 231.382C91.2043 231.535 91.1513 231.677 91.0687 231.807ZM93.7239 231.028C93.5824 230.946 93.4881 230.857 93.4409 230.763C93.3937 230.669 93.3702 230.569 93.3702 230.463C93.3702 230.404 93.3702 230.351 93.3702 230.303C93.382 230.244 93.3937 230.191 93.4055 230.144C93.606 228.836 93.7474 227.527 93.83 226.218C93.9125 224.91 93.9596 223.595 93.9714 222.275C93.9714 222.133 93.9655 221.992 93.9537 221.85C93.942 221.709 93.9066 221.579 93.8476 221.461C93.7415 221.225 93.6885 220.996 93.6885 220.772C93.6885 220.618 93.7062 220.471 93.7415 220.329C93.7769 220.188 93.8182 220.047 93.8653 219.905C93.9243 219.775 93.9832 219.652 94.0422 219.534C94.1011 219.416 94.2249 219.375 94.4135 219.41C94.6022 219.433 94.7613 219.492 94.891 219.587C95.0207 219.681 95.1032 219.828 95.1386 220.029C95.1504 220.088 95.1504 220.153 95.1386 220.223C95.1386 220.294 95.1386 220.365 95.1386 220.436C95.115 221.414 95.0973 222.399 95.0855 223.389C95.0737 224.367 95.0384 225.346 94.9794 226.324C94.9323 226.985 94.8497 227.651 94.7319 228.323C94.6257 228.983 94.5255 229.649 94.4312 230.321C94.4076 230.521 94.3428 230.681 94.2367 230.799C94.1306 230.928 93.9596 231.005 93.7239 231.028ZM100.558 230.905C100.346 230.905 100.128 230.869 99.9039 230.799C99.6917 230.728 99.4795 230.633 99.2673 230.516C98.6543 230.197 98.218 229.791 97.9587 229.295C97.7111 228.788 97.5873 228.234 97.5873 227.633C97.5873 227.456 97.5814 227.327 97.5696 227.244C97.5578 227.15 97.5284 227.044 97.4812 226.926C97.434 226.796 97.3515 226.607 97.2336 226.36C97.1511 226.159 97.157 225.953 97.2513 225.741C97.3574 225.517 97.4694 225.405 97.5873 225.405C97.7877 225.44 97.9351 225.393 98.0294 225.263C98.1355 225.122 98.2298 224.992 98.3124 224.874C98.4774 224.615 98.6601 224.338 98.8606 224.043C99.061 223.748 99.2909 223.471 99.5503 223.212C100.128 222.729 100.723 222.487 101.336 222.487C101.949 222.487 102.562 222.67 103.176 223.035C103.317 223.106 103.447 223.247 103.565 223.46C103.682 223.672 103.741 223.913 103.741 224.185C103.741 224.409 103.665 224.639 103.512 224.874C103.358 225.098 103.176 225.305 102.963 225.493C102.751 225.682 102.545 225.823 102.344 225.918C101.837 226.224 101.277 226.495 100.664 226.731C100.051 226.967 99.45 227.167 98.8606 227.332C98.7545 227.651 98.7663 227.999 98.8959 228.376C99.0256 228.741 99.226 229.06 99.4972 229.331C99.7801 229.602 100.081 229.737 100.399 229.737C100.706 229.737 101.024 229.631 101.354 229.419C101.696 229.195 102.085 228.942 102.521 228.659C102.686 228.494 102.845 228.411 102.999 228.411C103.14 228.411 103.258 228.488 103.352 228.641C103.447 228.783 103.494 228.889 103.494 228.959C103.494 229.113 103.382 229.301 103.158 229.525C102.934 229.749 102.657 229.967 102.327 230.18C102.008 230.38 101.684 230.551 101.354 230.692C101.036 230.834 100.77 230.905 100.558 230.905ZM99.1435 226.165C99.4029 226.083 99.7035 225.977 100.045 225.847C100.399 225.705 100.753 225.552 101.106 225.387C101.472 225.21 101.796 225.028 102.079 224.839C102.362 224.639 102.568 224.432 102.698 224.22C102.627 224.055 102.498 223.919 102.309 223.813C102.12 223.707 101.914 223.642 101.69 223.619C101.466 223.583 101.26 223.589 101.071 223.636C100.835 223.695 100.588 223.872 100.328 224.167C100.069 224.45 99.8332 224.774 99.621 225.14C99.4088 225.505 99.2496 225.847 99.1435 226.165ZM106.698 230.745C106.403 230.745 106.173 230.669 106.008 230.516C105.855 230.351 105.76 230.138 105.725 229.879C105.713 229.714 105.702 229.555 105.69 229.401C105.69 229.248 105.69 229.095 105.69 228.942V228.27C105.69 228.116 105.69 227.993 105.69 227.898C105.702 227.804 105.713 227.692 105.725 227.562C105.737 227.421 105.743 227.215 105.743 226.943C105.743 226.672 105.737 226.283 105.725 225.776C105.725 225.599 105.725 225.423 105.725 225.246C105.725 225.069 105.731 224.898 105.743 224.733C105.743 224.615 105.737 224.491 105.725 224.361C105.713 224.232 105.731 224.126 105.778 224.043C105.837 223.949 105.967 223.902 106.167 223.902C106.415 223.902 106.609 224.002 106.751 224.202C106.904 224.403 106.981 224.668 106.981 224.998C106.981 225.045 106.981 225.175 106.981 225.387C106.981 225.588 106.981 225.794 106.981 226.006C106.992 226.207 107.016 226.33 107.051 226.377C107.028 226.319 107.034 226.207 107.069 226.041C107.116 225.876 107.169 225.717 107.228 225.564C107.287 225.411 107.323 225.322 107.334 225.299C107.723 224.473 108.236 223.819 108.873 223.336C109.521 222.841 110.264 222.469 111.101 222.222C111.384 222.139 111.59 222.151 111.72 222.257C111.85 222.363 111.915 222.534 111.915 222.77C111.915 222.959 111.773 223.112 111.49 223.23C111.089 223.395 110.7 223.583 110.323 223.796C109.946 224.008 109.586 224.244 109.244 224.503C109.044 224.668 108.867 224.88 108.714 225.14C108.572 225.399 108.448 225.652 108.342 225.9C108.095 226.513 107.871 227.132 107.67 227.757C107.47 228.382 107.34 229.03 107.281 229.702C107.281 229.95 107.222 230.191 107.104 230.427C106.998 230.651 106.863 230.757 106.698 230.745Z" fill="#0B0B11"/>
<path d="M162.957 82.9987V94.0791H161.017V82.9987H162.957ZM170.158 94.0791H166.171V82.9987H170.052C171.143 82.9987 172.103 83.2362 172.932 83.7111C173.76 84.1759 174.407 84.8277 174.872 85.6665C175.347 86.4951 175.584 87.4602 175.584 88.5616C175.584 89.6429 175.352 90.6029 174.887 91.4416C174.432 92.2703 173.796 92.917 172.977 93.3818C172.169 93.8467 171.229 94.0791 170.158 94.0791ZM168.111 83.893V93.1999L167.187 92.2905H169.976C170.713 92.2905 171.35 92.1389 171.886 91.8357C172.421 91.5326 172.83 91.1031 173.113 90.5473C173.396 89.9915 173.538 89.3296 173.538 88.5616C173.538 87.7734 173.391 87.1014 173.098 86.5456C172.805 85.9797 172.386 85.5452 171.84 85.242C171.294 84.9389 170.638 84.7873 169.87 84.7873H167.187L168.111 83.893ZM179.271 94.261C178.938 94.261 178.65 94.1448 178.407 93.9124C178.165 93.6799 178.043 93.397 178.043 93.0635C178.043 92.73 178.165 92.4471 178.407 92.2147C178.65 91.9722 178.938 91.8509 179.271 91.8509C179.605 91.8509 179.893 91.9722 180.135 92.2147C180.378 92.4471 180.499 92.73 180.499 93.0635C180.499 93.397 180.378 93.6799 180.135 93.9124C179.893 94.1448 179.605 94.261 179.271 94.261ZM179.271 88.7435C178.938 88.7435 178.65 88.6273 178.407 88.3949C178.165 88.1625 178.043 87.8795 178.043 87.546C178.043 87.2126 178.165 86.9296 178.407 86.6972C178.65 86.4547 178.938 86.3334 179.271 86.3334C179.605 86.3334 179.893 86.4547 180.135 86.6972C180.378 86.9296 180.499 87.2126 180.499 87.546C180.499 87.8795 180.378 88.1625 180.135 88.3949C179.893 88.6273 179.605 88.7435 179.271 88.7435Z" fill="#0B0B11"/>
<path d="M191.881 94.4126C190.473 94.4126 189.232 94.1347 188.158 93.5789C187.102 93.0046 186.277 92.2079 185.684 91.189C185.11 90.1515 184.823 88.9473 184.823 87.5764H188.324C188.324 88.725 188.649 89.6235 189.297 90.2719C189.945 90.9204 190.835 91.2446 191.965 91.2446C192.761 91.2446 193.447 91.0871 194.021 90.7722C194.614 90.4387 195.068 89.9663 195.383 89.3549C195.716 88.7435 195.883 88.0303 195.883 87.2151C195.883 86.437 195.726 85.7515 195.411 85.1587C195.114 84.5473 194.679 84.0749 194.105 83.7414C193.53 83.4079 192.836 83.2412 192.02 83.2412C191.242 83.2412 190.52 83.4172 189.853 83.7692C189.204 84.1027 188.695 84.538 188.324 85.0753L185.184 84.4084L187.685 73.765H198.273V77.0442H189.325L190.52 75.9326L188.88 82.4075L187.685 82.9077C188.13 82.0555 188.797 81.4071 189.686 80.9625C190.594 80.4993 191.613 80.2677 192.743 80.2677C194.095 80.2677 195.272 80.5549 196.272 81.1292C197.291 81.7035 198.079 82.5002 198.634 83.5191C199.209 84.5195 199.496 85.6867 199.496 87.0206C199.496 88.4842 199.172 89.7717 198.523 90.8833C197.893 91.9949 197.004 92.8656 195.855 93.4955C194.725 94.1069 193.401 94.4126 191.881 94.4126ZM215.487 76.5995L208.151 83.3524L205.816 81.7128L212.93 75.1823L212.319 76.9052H202.593V73.765H215.487V76.5995ZM208.29 84.0193H205.816V81.7128C206.168 81.4349 206.632 81.2496 207.206 81.157C207.78 81.0458 208.317 80.9903 208.818 80.9903C209.781 80.9903 210.698 81.1385 211.569 81.4349C212.44 81.7313 213.208 82.1667 213.875 82.741C214.561 83.2968 215.098 83.9915 215.487 84.8252C215.876 85.6404 216.071 86.5759 216.071 87.6319C216.071 89.0214 215.746 90.2256 215.098 91.2446C214.45 92.2635 213.56 93.0509 212.43 93.6067C211.319 94.1625 210.077 94.4404 208.706 94.4404C207.373 94.4404 206.168 94.181 205.094 93.6623C204.038 93.125 203.195 92.3469 202.565 91.3279C201.954 90.309 201.648 89.0677 201.648 87.6042H205.149C205.149 88.7713 205.474 89.6791 206.122 90.3275C206.789 90.9574 207.669 91.2724 208.762 91.2724C209.874 91.2724 210.763 90.9389 211.43 90.2719C212.115 89.5865 212.458 88.6879 212.458 87.5764C212.458 86.5574 212.115 85.7145 211.43 85.0475C210.744 84.362 209.698 84.0193 208.29 84.0193ZM222.589 76.9608H218.143V73.765H225.98V94.0791H222.589V76.9608ZM241.971 88.1044L237.58 94.0791H233.523L239.247 86.437L240.137 86.6593C239.729 87.0113 239.22 87.2985 238.608 87.5208C238.015 87.7246 237.432 87.8265 236.857 87.8265C235.468 87.8265 234.245 87.53 233.189 86.9372C232.133 86.3258 231.309 85.4922 230.716 84.4362C230.123 83.3616 229.827 82.1389 229.827 80.7679C229.827 79.3229 230.151 78.0446 230.799 76.933C231.466 75.8214 232.365 74.9599 233.495 74.3486C234.644 73.7187 235.94 73.4037 237.385 73.4037C238.849 73.4037 240.155 73.7372 241.304 74.4042C242.471 75.0526 243.388 75.9326 244.055 77.0442C244.722 78.1557 245.055 79.4063 245.055 80.7957C245.055 81.6109 244.953 82.3797 244.75 83.1023C244.546 83.8248 244.222 84.5844 243.777 85.381C243.332 86.1591 242.73 87.0669 241.971 88.1044ZM241.415 80.7679C241.415 79.9343 241.248 79.2025 240.915 78.5726C240.581 77.9427 240.109 77.4517 239.497 77.0997C238.886 76.7477 238.182 76.5717 237.385 76.5717C236.607 76.5717 235.913 76.7477 235.301 77.0997C234.708 77.4517 234.245 77.9427 233.912 78.5726C233.578 79.2025 233.412 79.9343 233.412 80.7679C233.412 81.5831 233.578 82.3056 233.912 82.9355C234.245 83.5469 234.708 84.0286 235.301 84.3806C235.913 84.7326 236.607 84.9086 237.385 84.9086C238.201 84.9086 238.905 84.7326 239.497 84.3806C240.109 84.0286 240.581 83.5469 240.915 82.9355C241.248 82.3056 241.415 81.5831 241.415 80.7679ZM254.855 73.765H269.445V77.0442H254.855V73.765ZM266.666 75.2656L269.445 77.0442L262.081 94.0791H258.385L266.666 75.2656ZM278.015 94.4126C276.607 94.4126 275.365 94.1347 274.291 93.5789C273.235 93.0046 272.411 92.2079 271.818 91.189C271.243 90.1515 270.956 88.9473 270.956 87.5764H274.458C274.458 88.725 274.782 89.6235 275.43 90.2719C276.079 90.9204 276.968 91.2446 278.098 91.2446C278.895 91.2446 279.58 91.0871 280.155 90.7722C280.747 90.4387 281.201 89.9663 281.516 89.3549C281.85 88.7435 282.016 88.0303 282.016 87.2151C282.016 86.437 281.859 85.7515 281.544 85.1587C281.248 84.5473 280.812 84.0749 280.238 83.7414C279.664 83.4079 278.969 83.2412 278.154 83.2412C277.376 83.2412 276.653 83.4172 275.986 83.7692C275.338 84.1027 274.828 84.538 274.458 85.0753L271.317 84.4084L273.819 73.765H284.406V77.0442H275.458L276.653 75.9326L275.013 82.4075L273.819 82.9077C274.263 82.0555 274.93 81.4071 275.819 80.9625C276.727 80.4993 277.746 80.2677 278.876 80.2677C280.229 80.2677 281.405 80.5549 282.405 81.1292C283.424 81.7035 284.212 82.5002 284.768 83.5191C285.342 84.5195 285.629 85.6867 285.629 87.0206C285.629 88.4842 285.305 89.7717 284.656 90.8833C284.027 91.9949 283.137 92.8656 281.989 93.4955C280.859 94.1069 279.534 94.4126 278.015 94.4126ZM288.23 83.9637C288.23 81.8517 288.582 80.0084 289.286 78.4336C290.009 76.8589 291.009 75.6269 292.288 74.7376C293.585 73.8298 295.094 73.3759 296.817 73.3759C298.559 73.3759 300.069 73.8298 301.347 74.7376C302.644 75.6269 303.644 76.8589 304.348 78.4336C305.071 80.0084 305.432 81.8517 305.432 83.9637C305.432 86.0572 305.089 87.8913 304.404 89.466C303.718 91.0408 302.737 92.2635 301.458 93.1343C300.18 94.005 298.633 94.4404 296.817 94.4404C295.039 94.4404 293.501 94.005 292.204 93.1343C290.926 92.2635 289.944 91.0408 289.259 89.466C288.573 87.8913 288.23 86.0572 288.23 83.9637ZM291.732 83.9637C291.732 85.5199 291.936 86.8538 292.343 87.9654C292.751 89.0585 293.334 89.8922 294.094 90.4665C294.854 91.0223 295.761 91.3002 296.817 91.3002C297.91 91.3002 298.827 91.0223 299.569 90.4665C300.328 89.8922 300.912 89.0585 301.319 87.9654C301.727 86.8538 301.931 85.5199 301.931 83.9637C301.931 82.3519 301.727 80.9995 301.319 79.9065C300.912 78.7949 300.328 77.9519 299.569 77.3776C298.827 76.8033 297.91 76.5162 296.817 76.5162C295.761 76.5162 294.854 76.8033 294.094 77.3776C293.334 77.9519 292.751 78.7949 292.343 79.9065C291.936 80.9995 291.732 82.3519 291.732 83.9637ZM312.576 76.9608H308.13V73.765H315.966V94.0791H312.576V76.9608ZM328.582 88.1599V85.1587H337.53V88.1599H328.582ZM349.031 83.9637C349.031 81.8517 349.383 80.0084 350.087 78.4336C350.809 76.8589 351.81 75.6269 353.088 74.7376C354.385 73.8298 355.895 73.3759 357.618 73.3759C359.359 73.3759 360.869 73.8298 362.147 74.7376C363.444 75.6269 364.445 76.8589 365.149 78.4336C365.871 80.0084 366.232 81.8517 366.232 83.9637C366.232 86.0572 365.89 87.8913 365.204 89.466C364.519 91.0408 363.537 92.2635 362.259 93.1343C360.98 94.005 359.433 94.4404 357.618 94.4404C355.839 94.4404 354.301 94.005 353.005 93.1343C351.726 92.2635 350.744 91.0408 350.059 89.466C349.373 87.8913 349.031 86.0572 349.031 83.9637ZM352.532 83.9637C352.532 85.5199 352.736 86.8538 353.144 87.9654C353.551 89.0585 354.135 89.8922 354.894 90.4665C355.654 91.0223 356.562 91.3002 357.618 91.3002C358.711 91.3002 359.628 91.0223 360.369 90.4665C361.128 89.8922 361.712 89.0585 362.12 87.9654C362.527 86.8538 362.731 85.5199 362.731 83.9637C362.731 82.3519 362.527 80.9995 362.12 79.9065C361.712 78.7949 361.128 77.9519 360.369 77.3776C359.628 76.8033 358.711 76.5162 357.618 76.5162C356.562 76.5162 355.654 76.8033 354.894 77.3776C354.135 77.9519 353.551 78.7949 353.144 79.9065C352.736 80.9995 352.532 82.3519 352.532 83.9637ZM369.18 83.9637C369.18 81.8517 369.532 80.0084 370.236 78.4336C370.959 76.8589 371.959 75.6269 373.238 74.7376C374.534 73.8298 376.044 73.3759 377.767 73.3759C379.509 73.3759 381.019 73.8298 382.297 74.7376C383.594 75.6269 384.594 76.8589 385.298 78.4336C386.021 80.0084 386.382 81.8517 386.382 83.9637C386.382 86.0572 386.039 87.8913 385.354 89.466C384.668 91.0408 383.686 92.2635 382.408 93.1343C381.13 94.005 379.583 94.4404 377.767 94.4404C375.989 94.4404 374.451 94.005 373.154 93.1343C371.876 92.2635 370.894 91.0408 370.208 89.466C369.523 87.8913 369.18 86.0572 369.18 83.9637ZM372.682 83.9637C372.682 85.5199 372.886 86.8538 373.293 87.9654C373.701 89.0585 374.284 89.8922 375.044 90.4665C375.803 91.0223 376.711 91.3002 377.767 91.3002C378.86 91.3002 379.777 91.0223 380.518 90.4665C381.278 89.8922 381.862 89.0585 382.269 87.9654C382.677 86.8538 382.88 85.5199 382.88 83.9637C382.88 82.3519 382.677 80.9995 382.269 79.9065C381.862 78.7949 381.278 77.9519 380.518 77.3776C379.777 76.8033 378.86 76.5162 377.767 76.5162C376.711 76.5162 375.803 76.8033 375.044 77.3776C374.284 77.9519 373.701 78.7949 373.293 79.9065C372.886 80.9995 372.682 82.3519 372.682 83.9637ZM393.526 76.9608H389.08V73.765H396.916V94.0791H393.526V76.9608Z" fill="#0B0B11"/>
<path d="M162.957 111.42V122.5H161.017V111.42H162.957ZM165.413 117.786H162.366V116.149H165.307C165.842 116.149 166.251 116.017 166.534 115.755C166.817 115.482 166.959 115.098 166.959 114.603C166.959 114.128 166.812 113.764 166.519 113.511C166.226 113.259 165.802 113.132 165.246 113.132H162.305V111.42H165.413C166.514 111.42 167.378 111.687 168.005 112.223C168.631 112.759 168.944 113.491 168.944 114.421C168.944 115.088 168.783 115.649 168.459 116.103C168.136 116.548 167.656 116.871 167.019 117.073V116.861C167.707 117.023 168.227 117.326 168.581 117.771C168.934 118.215 169.111 118.791 169.111 119.499C169.111 120.125 168.97 120.666 168.687 121.121C168.404 121.565 167.989 121.909 167.444 122.151C166.908 122.384 166.261 122.5 165.504 122.5H162.305V120.787H165.413C165.968 120.787 166.393 120.656 166.686 120.393C166.979 120.13 167.125 119.751 167.125 119.256C167.125 118.791 166.974 118.433 166.671 118.18C166.378 117.917 165.958 117.786 165.413 117.786ZM178.53 122.5H171.648V111.42H178.53V113.208H172.906L173.588 112.587V116.058H178.014V117.771H173.588V121.333L172.906 120.711H178.53V122.5ZM183.286 122.5H181.376V111.42H183.301L189.061 120.135H188.501V111.42H190.41V122.5H188.501L182.725 113.799H183.286V122.5ZM200.344 122.5H198.465V111.42H200.344L203.921 120.241L207.499 111.42H209.409V122.5H207.529V119.089C207.529 118.534 207.529 118.069 207.529 117.695C207.529 117.311 207.534 116.988 207.544 116.725C207.554 116.462 207.564 116.23 207.574 116.028C207.585 115.825 207.605 115.623 207.635 115.421L204.816 122.5H203.027L200.223 115.436C200.273 115.77 200.304 116.194 200.314 116.71C200.334 117.225 200.344 117.831 200.344 118.529V122.5ZM214.559 111.42V122.5H212.619V111.42H214.559ZM219.713 111.42V122.5H217.773V111.42H219.713ZM218.107 122.5V120.711H224.336V122.5H218.107ZM228.627 111.42V122.5H226.687V111.42H228.627ZM227.021 122.5V120.711H233.251V122.5H227.021ZM242.483 122.5H235.601V111.42H242.483V113.208H236.859L237.542 112.587V116.058H241.968V117.771H237.542V121.333L236.859 120.711H242.483V122.5ZM247.27 122.5H245.33V111.42H249.559C250.812 111.42 251.787 111.723 252.484 112.329C253.192 112.935 253.545 113.784 253.545 114.876C253.545 115.613 253.373 116.245 253.03 116.77C252.696 117.286 252.201 117.68 251.544 117.953L253.651 122.5H251.529L249.65 118.362H247.27V122.5ZM247.27 113.148V116.649H249.559C250.175 116.649 250.655 116.492 250.999 116.179C251.342 115.866 251.514 115.431 251.514 114.876C251.514 114.32 251.342 113.895 250.999 113.602C250.655 113.299 250.175 113.148 249.559 113.148H247.27Z" fill="#0B0B11"/>
<mask id="path-12-inside-1_1417_4267" fill="white">
<path d="M159.789 147.974H416.21V195.079H159.789V147.974Z"/>
</mask>
<path d="M159.789 148.605H416.21V147.342H159.789V148.605ZM416.21 193.816H159.789V196.342H416.21V193.816Z" fill="#0B0B11" mask="url(#path-12-inside-1_1417_4267)"/>
<path d="M163.665 166.026H160.797V157.35H163.617C164.481 157.35 165.237 157.534 165.885 157.902C166.541 158.262 167.049 158.77 167.409 159.426C167.777 160.074 167.961 160.83 167.961 161.694C167.961 162.55 167.781 163.306 167.421 163.962C167.061 164.61 166.557 165.118 165.909 165.486C165.269 165.846 164.521 166.026 163.665 166.026ZM161.973 157.902V165.486L161.421 164.934H163.581C164.229 164.934 164.785 164.802 165.249 164.538C165.721 164.274 166.085 163.902 166.341 163.422C166.605 162.934 166.737 162.358 166.737 161.694C166.737 161.022 166.605 160.442 166.341 159.954C166.085 159.466 165.717 159.09 165.237 158.826C164.765 158.562 164.197 158.43 163.533 158.43H161.421L161.973 157.902ZM177.041 161.682C177.041 162.562 176.861 163.342 176.501 164.022C176.149 164.694 175.657 165.222 175.025 165.606C174.401 165.982 173.677 166.17 172.853 166.17C172.045 166.17 171.325 165.982 170.693 165.606C170.069 165.222 169.581 164.694 169.229 164.022C168.877 163.35 168.701 162.57 168.701 161.682C168.701 160.802 168.877 160.026 169.229 159.354C169.589 158.682 170.081 158.154 170.705 157.77C171.329 157.386 172.049 157.194 172.865 157.194C173.689 157.194 174.413 157.386 175.037 157.77C175.661 158.154 176.149 158.682 176.501 159.354C176.861 160.026 177.041 160.802 177.041 161.682ZM175.805 161.682C175.805 161.01 175.681 160.422 175.433 159.918C175.193 159.414 174.853 159.026 174.413 158.754C173.973 158.474 173.457 158.334 172.865 158.334C172.281 158.334 171.769 158.474 171.329 158.754C170.889 159.026 170.545 159.414 170.297 159.918C170.057 160.422 169.937 161.01 169.937 161.682C169.937 162.354 170.057 162.942 170.297 163.446C170.545 163.95 170.889 164.342 171.329 164.622C171.769 164.902 172.281 165.042 172.865 165.042C173.457 165.042 173.973 164.902 174.413 164.622C174.853 164.334 175.193 163.938 175.433 163.434C175.681 162.93 175.805 162.346 175.805 161.682ZM179.481 157.35V166.026H178.305V157.35H179.481ZM181.713 162.198H179.157V161.178H181.617C182.105 161.178 182.481 161.054 182.745 160.806C183.009 160.558 183.141 160.206 183.141 159.75C183.141 159.318 183.001 158.986 182.721 158.754C182.449 158.514 182.057 158.394 181.545 158.394H178.953V157.35H181.617C182.465 157.35 183.129 157.554 183.609 157.962C184.097 158.37 184.341 158.93 184.341 159.642C184.341 160.178 184.209 160.626 183.945 160.986C183.689 161.338 183.309 161.594 182.805 161.754V161.598C183.365 161.734 183.785 161.982 184.065 162.342C184.353 162.694 184.497 163.15 184.497 163.71C184.497 164.19 184.385 164.606 184.161 164.958C183.945 165.302 183.629 165.566 183.213 165.75C182.797 165.934 182.305 166.026 181.737 166.026H178.953V164.982H181.713C182.217 164.982 182.605 164.858 182.877 164.61C183.149 164.362 183.285 164.014 183.285 163.566C183.285 163.134 183.145 162.798 182.865 162.558C182.593 162.318 182.209 162.198 181.713 162.198ZM186.497 166.17C186.265 166.17 186.061 166.09 185.885 165.93C185.717 165.762 185.633 165.562 185.633 165.33C185.633 165.09 185.717 164.89 185.885 164.73C186.061 164.562 186.265 164.478 186.497 164.478C186.729 164.478 186.929 164.562 187.097 164.73C187.265 164.89 187.349 165.09 187.349 165.33C187.349 165.562 187.265 165.762 187.097 165.93C186.929 166.09 186.729 166.17 186.497 166.17ZM186.497 161.67C186.265 161.67 186.061 161.59 185.885 161.43C185.717 161.262 185.633 161.066 185.633 160.842C185.633 160.602 185.717 160.402 185.885 160.242C186.061 160.074 186.265 159.99 186.497 159.99C186.729 159.99 186.929 160.074 187.097 160.242C187.265 160.402 187.349 160.602 187.349 160.842C187.349 161.066 187.265 161.262 187.097 161.43C186.929 161.59 186.729 161.67 186.497 161.67Z" fill="#0B0B11"/>
<path d="M197.722 166.014L191.866 166.026V165.126L194.662 162.714C195.014 162.418 195.306 162.15 195.538 161.91C195.77 161.67 195.954 161.45 196.09 161.25C196.226 161.042 196.322 160.838 196.378 160.638C196.434 160.438 196.462 160.222 196.462 159.99C196.462 159.446 196.314 159.022 196.018 158.718C195.73 158.406 195.322 158.25 194.794 158.25C194.258 158.25 193.826 158.434 193.498 158.802C193.178 159.162 193.014 159.65 193.006 160.266H191.83C191.846 159.65 191.978 159.11 192.226 158.646C192.474 158.182 192.818 157.826 193.258 157.578C193.706 157.322 194.222 157.194 194.806 157.194C195.39 157.194 195.894 157.306 196.318 157.53C196.742 157.754 197.07 158.07 197.302 158.478C197.542 158.878 197.662 159.358 197.662 159.918C197.662 160.222 197.622 160.514 197.542 160.794C197.462 161.066 197.334 161.338 197.158 161.61C196.99 161.874 196.77 162.15 196.498 162.438C196.226 162.718 195.898 163.026 195.514 163.362L193.246 165.33L192.85 164.922H197.722V166.014ZM204.18 158.298L201 161.334L200.232 160.758L203.304 157.806L203.244 158.394H198.792V157.35H204.18V158.298ZM201.096 161.538H200.232V160.758C200.368 160.67 200.536 160.614 200.736 160.59C200.944 160.558 201.144 160.542 201.336 160.542C201.76 160.542 202.156 160.606 202.524 160.734C202.892 160.854 203.216 161.034 203.496 161.274C203.784 161.514 204.004 161.806 204.156 162.15C204.316 162.486 204.396 162.87 204.396 163.302C204.396 163.886 204.26 164.394 203.988 164.826C203.724 165.258 203.356 165.59 202.884 165.822C202.42 166.054 201.896 166.17 201.312 166.17C200.744 166.17 200.24 166.058 199.8 165.834C199.36 165.61 199.012 165.286 198.756 164.862C198.508 164.43 198.384 163.918 198.384 163.326H199.548C199.548 163.886 199.708 164.326 200.028 164.646C200.356 164.958 200.792 165.114 201.336 165.114C201.896 165.114 202.344 164.946 202.68 164.61C203.024 164.274 203.196 163.83 203.196 163.278C203.196 162.758 203.02 162.338 202.668 162.018C202.316 161.698 201.792 161.538 201.096 161.538ZM205.72 166.026H204.604L207.988 157.362H209.116L205.72 166.026ZM209.288 161.694C209.288 160.798 209.432 160.014 209.72 159.342C210.016 158.662 210.432 158.134 210.968 157.758C211.504 157.374 212.136 157.182 212.864 157.182C213.592 157.182 214.22 157.374 214.748 157.758C215.284 158.134 215.696 158.662 215.984 159.342C216.28 160.014 216.428 160.798 216.428 161.694C216.428 162.598 216.284 163.386 215.996 164.058C215.716 164.73 215.308 165.254 214.772 165.63C214.244 165.998 213.608 166.182 212.864 166.182C212.12 166.182 211.48 165.998 210.944 165.63C210.408 165.254 209.996 164.73 209.708 164.058C209.428 163.386 209.288 162.598 209.288 161.694ZM210.452 161.694C210.452 162.406 210.548 163.022 210.74 163.542C210.932 164.054 211.204 164.446 211.556 164.718C211.916 164.99 212.352 165.126 212.864 165.126C213.368 165.126 213.8 164.99 214.16 164.718C214.52 164.446 214.792 164.054 214.976 163.542C215.168 163.022 215.264 162.406 215.264 161.694C215.264 160.974 215.168 160.358 214.976 159.846C214.792 159.326 214.52 158.93 214.16 158.658C213.8 158.378 213.368 158.238 212.864 158.238C212.352 158.238 211.916 158.378 211.556 158.658C211.204 158.93 210.932 159.326 210.74 159.846C210.548 160.358 210.452 160.974 210.452 161.694ZM220.284 166.17C219.692 166.17 219.176 166.054 218.736 165.822C218.304 165.582 217.964 165.25 217.716 164.826C217.476 164.394 217.356 163.89 217.356 163.314H218.52C218.52 163.874 218.68 164.314 219 164.634C219.32 164.954 219.756 165.114 220.308 165.114C220.7 165.114 221.04 165.034 221.328 164.874C221.616 164.706 221.84 164.478 222 164.19C222.16 163.894 222.24 163.55 222.24 163.158C222.24 162.782 222.164 162.45 222.012 162.162C221.86 161.866 221.64 161.634 221.352 161.466C221.072 161.298 220.728 161.214 220.32 161.214C219.96 161.214 219.62 161.294 219.3 161.454C218.98 161.606 218.72 161.806 218.52 162.054L217.524 161.802L218.58 157.35H222.924V158.43H219.012L219.552 157.95L218.748 161.178L218.352 161.262C218.576 160.918 218.88 160.658 219.264 160.482C219.648 160.298 220.072 160.206 220.536 160.206C221.128 160.206 221.64 160.334 222.072 160.59C222.504 160.838 222.84 161.182 223.08 161.622C223.32 162.062 223.44 162.558 223.44 163.11C223.44 163.71 223.304 164.242 223.032 164.706C222.768 165.162 222.4 165.522 221.928 165.786C221.464 166.042 220.916 166.17 220.284 166.17ZM224.746 166.026H223.63L227.014 157.362H228.142L224.746 166.026ZM230.322 158.406H228.498V157.35H231.45V166.026H230.322V158.406ZM237.849 163.278L235.821 166.026H234.453L236.937 162.726L237.201 162.81C236.969 162.978 236.725 163.106 236.469 163.194C236.221 163.282 235.969 163.326 235.713 163.326C235.113 163.326 234.585 163.194 234.129 162.93C233.681 162.666 233.329 162.306 233.073 161.85C232.825 161.394 232.701 160.878 232.701 160.302C232.701 159.702 232.837 159.17 233.109 158.706C233.389 158.234 233.765 157.866 234.237 157.602C234.717 157.33 235.257 157.194 235.857 157.194C236.457 157.194 236.997 157.334 237.477 157.614C237.965 157.886 238.349 158.258 238.629 158.73C238.909 159.194 239.049 159.722 239.049 160.314C239.049 160.65 239.009 160.97 238.929 161.274C238.857 161.57 238.733 161.878 238.557 162.198C238.381 162.51 238.145 162.87 237.849 163.278ZM237.849 160.302C237.849 159.902 237.765 159.55 237.597 159.246C237.429 158.934 237.193 158.69 236.889 158.514C236.593 158.338 236.249 158.25 235.857 158.25C235.473 158.25 235.133 158.338 234.837 158.514C234.541 158.69 234.309 158.934 234.141 159.246C233.973 159.55 233.889 159.902 233.889 160.302C233.889 160.694 233.973 161.046 234.141 161.358C234.309 161.662 234.541 161.902 234.837 162.078C235.133 162.246 235.473 162.33 235.857 162.33C236.249 162.33 236.593 162.246 236.889 162.078C237.193 161.902 237.429 161.662 237.597 161.358C237.765 161.046 237.849 160.694 237.849 160.302ZM244.945 163.278L242.917 166.026H241.549L244.033 162.726L244.297 162.81C244.065 162.978 243.821 163.106 243.565 163.194C243.317 163.282 243.065 163.326 242.809 163.326C242.209 163.326 241.681 163.194 241.225 162.93C240.777 162.666 240.425 162.306 240.169 161.85C239.921 161.394 239.797 160.878 239.797 160.302C239.797 159.702 239.933 159.17 240.205 158.706C240.485 158.234 240.861 157.866 241.333 157.602C241.813 157.33 242.353 157.194 242.953 157.194C243.553 157.194 244.093 157.334 244.573 157.614C245.061 157.886 245.445 158.258 245.725 158.73C246.005 159.194 246.145 159.722 246.145 160.314C246.145 160.65 246.105 160.97 246.025 161.274C245.953 161.57 245.829 161.878 245.653 162.198C245.477 162.51 245.241 162.87 244.945 163.278ZM244.945 160.302C244.945 159.902 244.861 159.55 244.693 159.246C244.525 158.934 244.289 158.69 243.985 158.514C243.689 158.338 243.345 158.25 242.953 158.25C242.569 158.25 242.229 158.338 241.933 158.514C241.637 158.69 241.405 158.934 241.237 159.246C241.069 159.55 240.985 159.902 240.985 160.302C240.985 160.694 241.069 161.046 241.237 161.358C241.405 161.662 241.637 161.902 241.933 162.078C242.229 162.246 242.569 162.33 242.953 162.33C243.345 162.33 243.689 162.246 243.985 162.078C244.289 161.902 244.525 161.662 244.693 161.358C244.861 161.046 244.945 160.694 244.945 160.302ZM246.368 157.35H252.428V158.43H246.368V157.35ZM251.516 157.806L252.428 158.43L249.14 166.026H247.916L251.516 157.806Z" fill="#0B0B11"/>
<path d="M290.184 157.35V166.026H289.008V157.35H290.184ZM291.463 159.69C291.463 159.194 291.587 158.758 291.835 158.382C292.083 158.006 292.431 157.714 292.879 157.506C293.335 157.298 293.859 157.194 294.451 157.194C295.003 157.194 295.483 157.294 295.891 157.494C296.307 157.686 296.631 157.962 296.863 158.322C297.103 158.682 297.239 159.114 297.271 159.618H296.083C296.051 159.186 295.891 158.85 295.603 158.61C295.315 158.37 294.927 158.25 294.439 158.25C293.895 158.25 293.459 158.378 293.131 158.634C292.803 158.882 292.639 159.222 292.639 159.654C292.639 160.006 292.739 160.29 292.939 160.506C293.139 160.714 293.443 160.866 293.851 160.962L295.279 161.298C295.991 161.458 296.523 161.734 296.875 162.126C297.235 162.51 297.415 163.006 297.415 163.614C297.415 164.134 297.287 164.586 297.031 164.97C296.783 165.354 296.427 165.65 295.963 165.858C295.507 166.066 294.971 166.17 294.355 166.17C293.771 166.17 293.255 166.074 292.807 165.882C292.367 165.682 292.019 165.402 291.763 165.042C291.515 164.674 291.375 164.246 291.343 163.758H292.543C292.551 164.174 292.719 164.506 293.047 164.754C293.375 164.994 293.811 165.114 294.355 165.114C294.931 165.114 295.387 164.986 295.723 164.73C296.067 164.474 296.239 164.134 296.239 163.71C296.239 163.366 296.143 163.086 295.951 162.87C295.759 162.654 295.455 162.498 295.039 162.402L293.611 162.078C292.907 161.918 292.371 161.638 292.003 161.238C291.643 160.83 291.463 160.314 291.463 159.69ZM298.196 159.69C298.196 159.194 298.32 158.758 298.568 158.382C298.816 158.006 299.164 157.714 299.612 157.506C300.068 157.298 300.592 157.194 301.184 157.194C301.736 157.194 302.216 157.294 302.624 157.494C303.04 157.686 303.364 157.962 303.596 158.322C303.836 158.682 303.972 159.114 304.004 159.618H302.816C302.784 159.186 302.624 158.85 302.336 158.61C302.048 158.37 301.66 158.25 301.172 158.25C300.628 158.25 300.192 158.378 299.864 158.634C299.536 158.882 299.372 159.222 299.372 159.654C299.372 160.006 299.472 160.29 299.672 160.506C299.872 160.714 300.176 160.866 300.584 160.962L302.012 161.298C302.724 161.458 303.256 161.734 303.608 162.126C303.968 162.51 304.148 163.006 304.148 163.614C304.148 164.134 304.02 164.586 303.764 164.97C303.516 165.354 303.16 165.65 302.696 165.858C302.24 166.066 301.704 166.17 301.088 166.17C300.504 166.17 299.988 166.074 299.54 165.882C299.1 165.682 298.752 165.402 298.496 165.042C298.248 164.674 298.108 164.246 298.076 163.758H299.276C299.284 164.174 299.452 164.506 299.78 164.754C300.108 164.994 300.544 165.114 301.088 165.114C301.664 165.114 302.12 164.986 302.456 164.73C302.8 164.474 302.972 164.134 302.972 163.71C302.972 163.366 302.876 163.086 302.684 162.87C302.492 162.654 302.188 162.498 301.772 162.402L300.344 162.078C299.64 161.918 299.104 161.638 298.736 161.238C298.376 160.83 298.196 160.314 298.196 159.69ZM306.154 166.17C305.922 166.17 305.718 166.09 305.542 165.93C305.374 165.762 305.29 165.562 305.29 165.33C305.29 165.09 305.374 164.89 305.542 164.73C305.718 164.562 305.922 164.478 306.154 164.478C306.386 164.478 306.586 164.562 306.754 164.73C306.922 164.89 307.006 165.09 307.006 165.33C307.006 165.562 306.922 165.762 306.754 165.93C306.586 166.09 306.386 166.17 306.154 166.17ZM306.154 161.67C305.922 161.67 305.718 161.59 305.542 161.43C305.374 161.262 305.29 161.066 305.29 160.842C305.29 160.602 305.374 160.402 305.542 160.242C305.718 160.074 305.922 159.99 306.154 159.99C306.386 159.99 306.586 160.074 306.754 160.242C306.922 160.402 307.006 160.602 307.006 160.842C307.006 161.066 306.922 161.262 306.754 161.43C306.586 161.59 306.386 161.67 306.154 161.67Z" fill="#0B0B11"/>
<path d="M312.769 158.406H310.945V157.35H313.897V166.026H312.769V158.406ZM321.064 166.014L315.208 166.026V165.126L318.004 162.714C318.356 162.418 318.648 162.15 318.88 161.91C319.112 161.67 319.296 161.45 319.432 161.25C319.568 161.042 319.664 160.838 319.72 160.638C319.776 160.438 319.804 160.222 319.804 159.99C319.804 159.446 319.656 159.022 319.36 158.718C319.072 158.406 318.664 158.25 318.136 158.25C317.6 158.25 317.168 158.434 316.84 158.802C316.52 159.162 316.356 159.65 316.348 160.266H315.172C315.188 159.65 315.32 159.11 315.568 158.646C315.816 158.182 316.16 157.826 316.6 157.578C317.048 157.322 317.564 157.194 318.148 157.194C318.732 157.194 319.236 157.306 319.66 157.53C320.084 157.754 320.412 158.07 320.644 158.478C320.884 158.878 321.004 159.358 321.004 159.918C321.004 160.222 320.964 160.514 320.884 160.794C320.804 161.066 320.676 161.338 320.5 161.61C320.332 161.874 320.112 162.15 319.84 162.438C319.568 162.718 319.24 163.026 318.856 163.362L316.588 165.33L316.192 164.922H321.064V166.014ZM322.669 166.026H321.553L324.937 157.362H326.065L322.669 166.026ZM326.237 161.694C326.237 160.798 326.381 160.014 326.669 159.342C326.965 158.662 327.381 158.134 327.917 157.758C328.453 157.374 329.085 157.182 329.813 157.182C330.541 157.182 331.169 157.374 331.697 157.758C332.233 158.134 332.645 158.662 332.933 159.342C333.229 160.014 333.377 160.798 333.377 161.694C333.377 162.598 333.233 163.386 332.945 164.058C332.665 164.73 332.257 165.254 331.721 165.63C331.193 165.998 330.557 166.182 329.813 166.182C329.069 166.182 328.429 165.998 327.893 165.63C327.357 165.254 326.945 164.73 326.657 164.058C326.377 163.386 326.237 162.598 326.237 161.694ZM327.401 161.694C327.401 162.406 327.497 163.022 327.689 163.542C327.881 164.054 328.153 164.446 328.505 164.718C328.865 164.99 329.301 165.126 329.813 165.126C330.317 165.126 330.749 164.99 331.109 164.718C331.469 164.446 331.741 164.054 331.925 163.542C332.117 163.022 332.213 162.406 332.213 161.694C332.213 160.974 332.117 160.358 331.925 159.846C331.741 159.326 331.469 158.93 331.109 158.658C330.749 158.378 330.317 158.238 329.813 158.238C329.301 158.238 328.865 158.378 328.505 158.658C328.153 158.93 327.881 159.326 327.689 159.846C327.497 160.358 327.401 160.974 327.401 161.694ZM339.815 158.298L336.635 161.334L335.867 160.758L338.939 157.806L338.879 158.394H334.427V157.35H339.815V158.298ZM336.731 161.538H335.867V160.758C336.003 160.67 336.171 160.614 336.371 160.59C336.579 160.558 336.779 160.542 336.971 160.542C337.395 160.542 337.791 160.606 338.159 160.734C338.527 160.854 338.851 161.034 339.131 161.274C339.419 161.514 339.639 161.806 339.791 162.15C339.951 162.486 340.031 162.87 340.031 163.302C340.031 163.886 339.895 164.394 339.623 164.826C339.359 165.258 338.991 165.59 338.519 165.822C338.055 166.054 337.531 166.17 336.947 166.17C336.379 166.17 335.875 166.058 335.435 165.834C334.995 165.61 334.647 165.286 334.391 164.862C334.143 164.43 334.019 163.918 334.019 163.326H335.183C335.183 163.886 335.343 164.326 335.663 164.646C335.991 164.958 336.427 165.114 336.971 165.114C337.531 165.114 337.979 164.946 338.315 164.61C338.659 164.274 338.831 163.83 338.831 163.278C338.831 162.758 338.655 162.338 338.303 162.018C337.951 161.698 337.427 161.538 336.731 161.538ZM341.355 166.026H340.239L343.623 157.362H344.751L341.355 166.026ZM350.743 166.014L344.887 166.026V165.126L347.683 162.714C348.035 162.418 348.327 162.15 348.559 161.91C348.791 161.67 348.975 161.45 349.111 161.25C349.247 161.042 349.343 160.838 349.399 160.638C349.455 160.438 349.483 160.222 349.483 159.99C349.483 159.446 349.335 159.022 349.039 158.718C348.751 158.406 348.343 158.25 347.815 158.25C347.279 158.25 346.847 158.434 346.519 158.802C346.199 159.162 346.035 159.65 346.027 160.266H344.851C344.867 159.65 344.999 159.11 345.247 158.646C345.495 158.182 345.839 157.826 346.279 157.578C346.727 157.322 347.243 157.194 347.827 157.194C348.411 157.194 348.915 157.306 349.339 157.53C349.763 157.754 350.091 158.07 350.323 158.478C350.563 158.878 350.683 159.358 350.683 159.918C350.683 160.222 350.643 160.514 350.563 160.794C350.483 161.066 350.355 161.338 350.179 161.61C350.011 161.874 349.791 162.15 349.519 162.438C349.247 162.718 348.919 163.026 348.535 163.362L346.267 165.33L345.871 164.922H350.743V166.014ZM351.586 161.694C351.586 160.798 351.73 160.014 352.018 159.342C352.314 158.662 352.73 158.134 353.266 157.758C353.802 157.374 354.434 157.182 355.162 157.182C355.89 157.182 356.518 157.374 357.046 157.758C357.582 158.134 357.994 158.662 358.282 159.342C358.578 160.014 358.726 160.798 358.726 161.694C358.726 162.598 358.582 163.386 358.294 164.058C358.014 164.73 357.606 165.254 357.07 165.63C356.542 165.998 355.906 166.182 355.162 166.182C354.418 166.182 353.778 165.998 353.242 165.63C352.706 165.254 352.294 164.73 352.006 164.058C351.726 163.386 351.586 162.598 351.586 161.694ZM352.75 161.694C352.75 162.406 352.846 163.022 353.038 163.542C353.23 164.054 353.502 164.446 353.854 164.718C354.214 164.99 354.65 165.126 355.162 165.126C355.666 165.126 356.098 164.99 356.458 164.718C356.818 164.446 357.09 164.054 357.274 163.542C357.466 163.022 357.562 162.406 357.562 161.694C357.562 160.974 357.466 160.358 357.274 159.846C357.09 159.326 356.818 158.93 356.458 158.658C356.098 158.378 355.666 158.238 355.162 158.238C354.65 158.238 354.214 158.378 353.854 158.658C353.502 158.93 353.23 159.326 353.038 159.846C352.846 160.358 352.75 160.974 352.75 161.694ZM365.486 166.014L359.63 166.026V165.126L362.426 162.714C362.778 162.418 363.07 162.15 363.302 161.91C363.534 161.67 363.718 161.45 363.854 161.25C363.99 161.042 364.086 160.838 364.142 160.638C364.198 160.438 364.226 160.222 364.226 159.99C364.226 159.446 364.078 159.022 363.782 158.718C363.494 158.406 363.086 158.25 362.558 158.25C362.022 158.25 361.59 158.434 361.262 158.802C360.942 159.162 360.778 159.65 360.77 160.266H359.594C359.61 159.65 359.742 159.11 359.99 158.646C360.238 158.182 360.582 157.826 361.022 157.578C361.47 157.322 361.986 157.194 362.57 157.194C363.154 157.194 363.658 157.306 364.082 157.53C364.506 157.754 364.834 158.07 365.066 158.478C365.306 158.878 365.426 159.358 365.426 159.918C365.426 160.222 365.386 160.514 365.306 160.794C365.226 161.066 365.098 161.338 364.922 161.61C364.754 161.874 364.534 162.15 364.262 162.438C363.99 162.718 363.662 163.026 363.278 163.362L361.01 165.33L360.614 164.922H365.486V166.014ZM372.195 166.014L366.339 166.026V165.126L369.135 162.714C369.487 162.418 369.779 162.15 370.011 161.91C370.243 161.67 370.427 161.45 370.563 161.25C370.699 161.042 370.795 160.838 370.851 160.638C370.907 160.438 370.935 160.222 370.935 159.99C370.935 159.446 370.787 159.022 370.491 158.718C370.203 158.406 369.795 158.25 369.267 158.25C368.731 158.25 368.299 158.434 367.971 158.802C367.651 159.162 367.487 159.65 367.479 160.266H366.303C366.319 159.65 366.451 159.11 366.699 158.646C366.947 158.182 367.291 157.826 367.731 157.578C368.179 157.322 368.695 157.194 369.279 157.194C369.863 157.194 370.367 157.306 370.791 157.53C371.215 157.754 371.543 158.07 371.775 158.478C372.015 158.878 372.135 159.358 372.135 159.918C372.135 160.222 372.095 160.514 372.015 160.794C371.935 161.066 371.807 161.338 371.631 161.61C371.463 161.874 371.243 162.15 370.971 162.438C370.699 162.718 370.371 163.026 369.987 163.362L367.719 165.33L367.323 164.922H372.195V166.014Z" fill="#0B0B11"/>
<path d="M160.293 180.69C160.293 180.194 160.417 179.758 160.665 179.382C160.913 179.006 161.261 178.714 161.709 178.506C162.165 178.298 162.689 178.194 163.281 178.194C163.833 178.194 164.313 178.294 164.721 178.494C165.137 178.686 165.461 178.962 165.693 179.322C165.933 179.682 166.069 180.114 166.101 180.618H164.913C164.881 180.186 164.721 179.85 164.433 179.61C164.145 179.37 163.757 179.25 163.269 179.25C162.725 179.25 162.289 179.378 161.961 179.634C161.633 179.882 161.469 180.222 161.469 180.654C161.469 181.006 161.569 181.29 161.769 181.506C161.969 181.714 162.273 181.866 162.681 181.962L164.109 182.298C164.821 182.458 165.353 182.734 165.705 183.126C166.065 183.51 166.245 184.006 166.245 184.614C166.245 185.134 166.117 185.586 165.861 185.97C165.613 186.354 165.257 186.65 164.793 186.858C164.337 187.066 163.801 187.17 163.185 187.17C162.601 187.17 162.085 187.074 161.637 186.882C161.197 186.682 160.849 186.402 160.593 186.042C160.345 185.674 160.205 185.246 160.173 184.758H161.373C161.381 185.174 161.549 185.506 161.877 185.754C162.205 185.994 162.641 186.114 163.185 186.114C163.761 186.114 164.217 185.986 164.553 185.73C164.897 185.474 165.069 185.134 165.069 184.71C165.069 184.366 164.973 184.086 164.781 183.87C164.589 183.654 164.285 183.498 163.869 183.402L162.441 183.078C161.737 182.918 161.201 182.638 160.833 182.238C160.473 181.83 160.293 181.314 160.293 180.69ZM172.775 187.026H167.483V178.35H172.775V179.43H168.119L168.659 178.962V182.142H172.367V183.186H168.659V186.426L168.119 185.934H172.775V187.026ZM176.399 182.694L173.435 178.35H174.839L176.195 180.282C176.387 180.562 176.555 180.826 176.699 181.074C176.851 181.322 176.991 181.566 177.119 181.806L179.411 178.35H180.767L177.863 182.682L180.803 187.026H179.411L178.079 185.118C177.911 184.878 177.747 184.626 177.587 184.362C177.427 184.098 177.275 183.842 177.131 183.594L174.803 187.026H173.423L176.399 182.694ZM182.501 187.17C182.269 187.17 182.065 187.09 181.889 186.93C181.721 186.762 181.637 186.562 181.637 186.33C181.637 186.09 181.721 185.89 181.889 185.73C182.065 185.562 182.269 185.478 182.501 185.478C182.733 185.478 182.933 185.562 183.101 185.73C183.269 185.89 183.353 186.09 183.353 186.33C183.353 186.562 183.269 186.762 183.101 186.93C182.933 187.09 182.733 187.17 182.501 187.17ZM182.501 182.67C182.269 182.67 182.065 182.59 181.889 182.43C181.721 182.262 181.637 182.066 181.637 181.842C181.637 181.602 181.721 181.402 181.889 181.242C182.065 181.074 182.269 180.99 182.501 180.99C182.733 180.99 182.933 181.074 183.101 181.242C183.269 181.402 183.353 181.602 183.353 181.842C183.353 182.066 183.269 182.262 183.101 182.43C182.933 182.59 182.733 182.67 182.501 182.67Z" fill="#0B0B11"/>
<path d="M189.474 187.026H188.322V178.35H189.474L192.462 185.646L195.45 178.35H196.626V187.026H195.474V183.594C195.474 183.186 195.474 182.838 195.474 182.55C195.474 182.262 195.478 182.014 195.486 181.806C195.494 181.598 195.502 181.414 195.51 181.254C195.518 181.086 195.53 180.926 195.546 180.774L193.014 187.026H191.91L189.39 180.798C189.422 181.006 189.442 181.326 189.45 181.758C189.466 182.19 189.474 182.71 189.474 183.318V187.026Z" fill="#0B0B11"/>
<path d="M294.3 187.026H289.008V178.35H294.3V179.43H289.644L290.184 178.962V182.142H293.892V183.186H290.184V186.426L289.644 185.934H294.3V187.026ZM297.924 182.694L294.96 178.35H296.364L297.72 180.282C297.912 180.562 298.08 180.826 298.224 181.074C298.376 181.322 298.516 181.566 298.644 181.806L300.936 178.35H302.292L299.388 182.682L302.328 187.026H300.936L299.604 185.118C299.436 184.878 299.272 184.626 299.112 184.362C298.952 184.098 298.8 183.842 298.656 183.594L296.328 187.026H294.948L297.924 182.694ZM304.434 178.35V187.026H303.258V178.35H304.434ZM306.63 183.93H304.17V182.874H306.378C306.962 182.874 307.41 182.718 307.722 182.406C308.034 182.086 308.19 181.658 308.19 181.122C308.19 180.578 308.034 180.158 307.722 179.862C307.41 179.558 306.978 179.406 306.426 179.406H303.906V178.35H306.63C307.198 178.35 307.69 178.466 308.106 178.698C308.522 178.93 308.846 179.254 309.078 179.67C309.31 180.086 309.426 180.574 309.426 181.134C309.426 181.67 309.31 182.15 309.078 182.574C308.846 182.998 308.522 183.33 308.106 183.57C307.69 183.81 307.198 183.93 306.63 183.93ZM311.286 187.17C311.054 187.17 310.85 187.09 310.674 186.93C310.506 186.762 310.422 186.562 310.422 186.33C310.422 186.09 310.506 185.89 310.674 185.73C310.85 185.562 311.054 185.478 311.286 185.478C311.518 185.478 311.718 185.562 311.886 185.73C312.054 185.89 312.138 186.09 312.138 186.33C312.138 186.562 312.054 186.762 311.886 186.93C311.718 187.09 311.518 187.17 311.286 187.17ZM311.286 182.67C311.054 182.67 310.85 182.59 310.674 182.43C310.506 182.262 310.422 182.066 310.422 181.842C310.422 181.602 310.506 181.402 310.674 181.242C310.85 181.074 311.054 180.99 311.286 180.99C311.518 180.99 311.718 181.074 311.886 181.242C312.054 181.402 312.138 181.602 312.138 181.842C312.138 182.066 312.054 182.262 311.886 182.43C311.718 182.59 311.518 182.67 311.286 182.67Z" fill="#0B0B11"/>
<path d="M318.769 179.406H316.945V178.35H319.897V187.026H318.769V179.406ZM327.064 187.014L321.208 187.026V186.126L324.004 183.714C324.356 183.418 324.648 183.15 324.88 182.91C325.112 182.67 325.296 182.45 325.432 182.25C325.568 182.042 325.664 181.838 325.72 181.638C325.776 181.438 325.804 181.222 325.804 180.99C325.804 180.446 325.656 180.022 325.36 179.718C325.072 179.406 324.664 179.25 324.136 179.25C323.6 179.25 323.168 179.434 322.84 179.802C322.52 180.162 322.356 180.65 322.348 181.266H321.172C321.188 180.65 321.32 180.11 321.568 179.646C321.816 179.182 322.16 178.826 322.6 178.578C323.048 178.322 323.564 178.194 324.148 178.194C324.732 178.194 325.236 178.306 325.66 178.53C326.084 178.754 326.412 179.07 326.644 179.478C326.884 179.878 327.004 180.358 327.004 180.918C327.004 181.222 326.964 181.514 326.884 181.794C326.804 182.066 326.676 182.338 326.5 182.61C326.332 182.874 326.112 183.15 325.84 183.438C325.568 183.718 325.24 184.026 324.856 184.362L322.588 186.33L322.192 185.922H327.064V187.014ZM328.669 187.026H327.553L330.937 178.362H332.065L328.669 187.026ZM332.237 182.694C332.237 181.798 332.381 181.014 332.669 180.342C332.965 179.662 333.381 179.134 333.917 178.758C334.453 178.374 335.085 178.182 335.813 178.182C336.541 178.182 337.169 178.374 337.697 178.758C338.233 179.134 338.645 179.662 338.933 180.342C339.229 181.014 339.377 181.798 339.377 182.694C339.377 183.598 339.233 184.386 338.945 185.058C338.665 185.73 338.257 186.254 337.721 186.63C337.193 186.998 336.557 187.182 335.813 187.182C335.069 187.182 334.429 186.998 333.893 186.63C333.357 186.254 332.945 185.73 332.657 185.058C332.377 184.386 332.237 183.598 332.237 182.694ZM333.401 182.694C333.401 183.406 333.497 184.022 333.689 184.542C333.881 185.054 334.153 185.446 334.505 185.718C334.865 185.99 335.301 186.126 335.813 186.126C336.317 186.126 336.749 185.99 337.109 185.718C337.469 185.446 337.741 185.054 337.925 184.542C338.117 184.022 338.213 183.406 338.213 182.694C338.213 181.974 338.117 181.358 337.925 180.846C337.741 180.326 337.469 179.93 337.109 179.658C336.749 179.378 336.317 179.238 335.813 179.238C335.301 179.238 334.865 179.378 334.505 179.658C334.153 179.93 333.881 180.326 333.689 180.846C333.497 181.358 333.401 181.974 333.401 182.694ZM345.815 179.298L342.635 182.334L341.867 181.758L344.939 178.806L344.879 179.394H340.427V178.35H345.815V179.298ZM342.731 182.538H341.867V181.758C342.003 181.67 342.171 181.614 342.371 181.59C342.579 181.558 342.779 181.542 342.971 181.542C343.395 181.542 343.791 181.606 344.159 181.734C344.527 181.854 344.851 182.034 345.131 182.274C345.419 182.514 345.639 182.806 345.791 183.15C345.951 183.486 346.031 183.87 346.031 184.302C346.031 184.886 345.895 185.394 345.623 185.826C345.359 186.258 344.991 186.59 344.519 186.822C344.055 187.054 343.531 187.17 342.947 187.17C342.379 187.17 341.875 187.058 341.435 186.834C340.995 186.61 340.647 186.286 340.391 185.862C340.143 185.43 340.019 184.918 340.019 184.326H341.183C341.183 184.886 341.343 185.326 341.663 185.646C341.991 185.958 342.427 186.114 342.971 186.114C343.531 186.114 343.979 185.946 344.315 185.61C344.659 185.274 344.831 184.83 344.831 184.278C344.831 183.758 344.655 183.338 344.303 183.018C343.951 182.698 343.427 182.538 342.731 182.538ZM347.355 187.026H346.239L349.623 178.362H350.751L347.355 187.026ZM356.743 187.014L350.887 187.026V186.126L353.683 183.714C354.035 183.418 354.327 183.15 354.559 182.91C354.791 182.67 354.975 182.45 355.111 182.25C355.247 182.042 355.343 181.838 355.399 181.638C355.455 181.438 355.483 181.222 355.483 180.99C355.483 180.446 355.335 180.022 355.039 179.718C354.751 179.406 354.343 179.25 353.815 179.25C353.279 179.25 352.847 179.434 352.519 179.802C352.199 180.162 352.035 180.65 352.027 181.266H350.851C350.867 180.65 350.999 180.11 351.247 179.646C351.495 179.182 351.839 178.826 352.279 178.578C352.727 178.322 353.243 178.194 353.827 178.194C354.411 178.194 354.915 178.306 355.339 178.53C355.763 178.754 356.091 179.07 356.323 179.478C356.563 179.878 356.683 180.358 356.683 180.918C356.683 181.222 356.643 181.514 356.563 181.794C356.483 182.066 356.355 182.338 356.179 182.61C356.011 182.874 355.791 183.15 355.519 183.438C355.247 183.718 354.919 184.026 354.535 184.362L352.267 186.33L351.871 185.922H356.743V187.014ZM357.586 182.694C357.586 181.798 357.73 181.014 358.018 180.342C358.314 179.662 358.73 179.134 359.266 178.758C359.802 178.374 360.434 178.182 361.162 178.182C361.89 178.182 362.518 178.374 363.046 178.758C363.582 179.134 363.994 179.662 364.282 180.342C364.578 181.014 364.726 181.798 364.726 182.694C364.726 183.598 364.582 184.386 364.294 185.058C364.014 185.73 363.606 186.254 363.07 186.63C362.542 186.998 361.906 187.182 361.162 187.182C360.418 187.182 359.778 186.998 359.242 186.63C358.706 186.254 358.294 185.73 358.006 185.058C357.726 184.386 357.586 183.598 357.586 182.694ZM358.75 182.694C358.75 183.406 358.846 184.022 359.038 184.542C359.23 185.054 359.502 185.446 359.854 185.718C360.214 185.99 360.65 186.126 361.162 186.126C361.666 186.126 362.098 185.99 362.458 185.718C362.818 185.446 363.09 185.054 363.274 184.542C363.466 184.022 363.562 183.406 363.562 182.694C363.562 181.974 363.466 181.358 363.274 180.846C363.09 180.326 362.818 179.93 362.458 179.658C362.098 179.378 361.666 179.238 361.162 179.238C360.65 179.238 360.214 179.378 359.854 179.658C359.502 179.93 359.23 180.326 359.038 180.846C358.846 181.358 358.75 181.974 358.75 182.694ZM371.486 187.014L365.63 187.026V186.126L368.426 183.714C368.778 183.418 369.07 183.15 369.302 182.91C369.534 182.67 369.718 182.45 369.854 182.25C369.99 182.042 370.086 181.838 370.142 181.638C370.198 181.438 370.226 181.222 370.226 180.99C370.226 180.446 370.078 180.022 369.782 179.718C369.494 179.406 369.086 179.25 368.558 179.25C368.022 179.25 367.59 179.434 367.262 179.802C366.942 180.162 366.778 180.65 366.77 181.266H365.594C365.61 180.65 365.742 180.11 365.99 179.646C366.238 179.182 366.582 178.826 367.022 178.578C367.47 178.322 367.986 178.194 368.57 178.194C369.154 178.194 369.658 178.306 370.082 178.53C370.506 178.754 370.834 179.07 371.066 179.478C371.306 179.878 371.426 180.358 371.426 180.918C371.426 181.222 371.386 181.514 371.306 181.794C371.226 182.066 371.098 182.338 370.922 182.61C370.754 182.874 370.534 183.15 370.262 183.438C369.99 183.718 369.662 184.026 369.278 184.362L367.01 186.33L366.614 185.922H371.486V187.014ZM373.432 181.098L375.46 178.35H376.828L374.344 181.65L374.08 181.566C374.312 181.39 374.552 181.262 374.8 181.182C375.056 181.094 375.312 181.05 375.568 181.05C376.168 181.05 376.692 181.182 377.14 181.446C377.596 181.702 377.948 182.058 378.196 182.514C378.452 182.97 378.58 183.486 378.58 184.062C378.58 184.67 378.44 185.21 378.16 185.682C377.888 186.146 377.512 186.51 377.032 186.774C376.56 187.038 376.024 187.17 375.424 187.17C374.824 187.17 374.28 187.034 373.792 186.762C373.312 186.49 372.932 186.118 372.652 185.646C372.372 185.174 372.232 184.646 372.232 184.062C372.232 183.718 372.268 183.398 372.34 183.102C372.42 182.806 372.548 182.498 372.724 182.178C372.9 181.858 373.136 181.498 373.432 181.098ZM373.432 184.074C373.432 184.474 373.516 184.83 373.684 185.142C373.852 185.446 374.084 185.686 374.38 185.862C374.684 186.03 375.032 186.114 375.424 186.114C375.808 186.114 376.148 186.03 376.444 185.862C376.74 185.686 376.972 185.446 377.14 185.142C377.308 184.83 377.392 184.474 377.392 184.074C377.392 183.674 377.308 183.322 377.14 183.018C376.972 182.714 376.74 182.478 376.444 182.31C376.148 182.134 375.808 182.046 375.424 182.046C375.032 182.046 374.684 182.134 374.38 182.31C374.084 182.478 373.852 182.714 373.684 183.018C373.516 183.322 373.432 183.674 373.432 184.074Z" fill="#0B0B11"/>
<path d="M161.797 220.735H160.165V219.79H162.806V227.553H161.797V220.735ZM169.326 227.542L164.087 227.553V226.747L166.588 224.589C166.903 224.325 167.164 224.085 167.372 223.87C167.58 223.655 167.744 223.458 167.866 223.279C167.988 223.093 168.074 222.911 168.124 222.732C168.174 222.553 168.199 222.36 168.199 222.152C168.199 221.665 168.066 221.286 167.802 221.014C167.544 220.735 167.179 220.595 166.706 220.595C166.227 220.595 165.84 220.76 165.547 221.089C165.26 221.411 165.114 221.848 165.107 222.399H164.054C164.069 221.848 164.187 221.365 164.409 220.95C164.631 220.534 164.938 220.216 165.332 219.994C165.733 219.765 166.195 219.65 166.717 219.65C167.24 219.65 167.691 219.751 168.07 219.951C168.449 220.151 168.743 220.434 168.95 220.799C169.165 221.157 169.272 221.587 169.272 222.088C169.272 222.36 169.237 222.621 169.165 222.871C169.094 223.115 168.979 223.358 168.822 223.602C168.671 223.838 168.474 224.085 168.231 224.342C167.988 224.593 167.694 224.869 167.351 225.169L165.321 226.93L164.967 226.565H169.326V227.542ZM175.211 220.638L172.366 223.355L171.679 222.839L174.427 220.198L174.374 220.724H170.39V219.79H175.211V220.638ZM172.452 223.537H171.679V222.839C171.8 222.761 171.951 222.71 172.13 222.689C172.316 222.66 172.495 222.646 172.666 222.646C173.046 222.646 173.4 222.703 173.729 222.818C174.059 222.925 174.348 223.086 174.599 223.301C174.857 223.516 175.054 223.777 175.19 224.085C175.333 224.385 175.404 224.729 175.404 225.115C175.404 225.638 175.283 226.093 175.039 226.479C174.803 226.866 174.474 227.163 174.051 227.37C173.636 227.578 173.167 227.682 172.645 227.682C172.137 227.682 171.686 227.581 171.292 227.381C170.898 227.181 170.587 226.891 170.358 226.511C170.136 226.125 170.025 225.667 170.025 225.137H171.067C171.067 225.638 171.21 226.032 171.496 226.318C171.79 226.597 172.18 226.737 172.666 226.737C173.167 226.737 173.568 226.586 173.869 226.286C174.177 225.985 174.331 225.588 174.331 225.094C174.331 224.629 174.173 224.253 173.858 223.967C173.543 223.68 173.074 223.537 172.452 223.537ZM181.077 219.79V227.553H180.068V219.79H181.077ZM176.053 225.051L179.714 219.79H180.841L177.148 225.115L176.053 225.051ZM182.001 225.985H176.053V225.051H182.001V225.985ZM185.426 227.682C184.896 227.682 184.435 227.578 184.041 227.37C183.654 227.155 183.35 226.858 183.128 226.479C182.913 226.093 182.806 225.642 182.806 225.126H183.848C183.848 225.627 183.991 226.021 184.277 226.307C184.563 226.594 184.953 226.737 185.447 226.737C185.798 226.737 186.102 226.665 186.36 226.522C186.618 226.372 186.818 226.168 186.961 225.91C187.104 225.645 187.176 225.337 187.176 224.987C187.176 224.65 187.108 224.353 186.972 224.095C186.836 223.831 186.639 223.623 186.381 223.473C186.131 223.322 185.823 223.247 185.458 223.247C185.136 223.247 184.832 223.319 184.545 223.462C184.259 223.598 184.027 223.777 183.848 223.999L182.956 223.773L183.901 219.79H187.788V220.756H184.288L184.771 220.327L184.052 223.215L183.697 223.29C183.898 222.982 184.17 222.75 184.513 222.592C184.857 222.428 185.236 222.345 185.651 222.345C186.181 222.345 186.639 222.46 187.026 222.689C187.412 222.911 187.713 223.219 187.928 223.612C188.142 224.006 188.25 224.45 188.25 224.944C188.25 225.481 188.128 225.957 187.885 226.372C187.648 226.78 187.319 227.102 186.897 227.338C186.482 227.567 185.991 227.682 185.426 227.682ZM190.041 222.249L191.855 219.79H193.079L190.857 222.743L190.621 222.667C190.828 222.51 191.043 222.395 191.265 222.324C191.494 222.245 191.723 222.206 191.952 222.206C192.489 222.206 192.958 222.324 193.358 222.56C193.766 222.789 194.081 223.108 194.303 223.516C194.532 223.924 194.647 224.385 194.647 224.901C194.647 225.445 194.522 225.928 194.271 226.35C194.028 226.765 193.691 227.091 193.262 227.327C192.84 227.563 192.36 227.682 191.823 227.682C191.286 227.682 190.8 227.56 190.363 227.317C189.933 227.073 189.593 226.74 189.343 226.318C189.092 225.896 188.967 225.423 188.967 224.901C188.967 224.593 188.999 224.307 189.064 224.042C189.135 223.777 189.25 223.501 189.407 223.215C189.565 222.929 189.776 222.607 190.041 222.249ZM190.041 224.911C190.041 225.269 190.116 225.588 190.266 225.867C190.417 226.139 190.624 226.354 190.889 226.511C191.161 226.662 191.472 226.737 191.823 226.737C192.167 226.737 192.471 226.662 192.736 226.511C193.001 226.354 193.208 226.139 193.358 225.867C193.509 225.588 193.584 225.269 193.584 224.911C193.584 224.554 193.509 224.239 193.358 223.967C193.208 223.695 193.001 223.483 192.736 223.333C192.471 223.176 192.167 223.097 191.823 223.097C191.472 223.097 191.161 223.176 190.889 223.333C190.624 223.483 190.417 223.695 190.266 223.967C190.116 224.239 190.041 224.554 190.041 224.911ZM194.471 219.79H199.894V220.756H194.471V219.79ZM199.078 220.198L199.894 220.756L196.952 227.553H195.857L199.078 220.198ZM200.256 225.395C200.256 224.865 200.417 224.41 200.739 224.031C201.061 223.645 201.491 223.401 202.028 223.301L202.038 223.526C201.559 223.398 201.187 223.176 200.922 222.861C200.664 222.539 200.535 222.149 200.535 221.69C200.535 221.282 200.643 220.928 200.857 220.627C201.072 220.32 201.373 220.08 201.759 219.908C202.153 219.736 202.608 219.65 203.123 219.65C203.631 219.65 204.075 219.736 204.454 219.908C204.841 220.08 205.141 220.32 205.356 220.627C205.571 220.935 205.678 221.293 205.678 221.701C205.678 222.159 205.546 222.549 205.281 222.871C205.023 223.186 204.655 223.401 204.175 223.516L204.164 223.312C204.522 223.362 204.837 223.487 205.109 223.687C205.381 223.881 205.592 224.124 205.743 224.418C205.893 224.711 205.968 225.04 205.968 225.405C205.968 225.856 205.846 226.254 205.603 226.597C205.367 226.941 205.034 227.209 204.605 227.402C204.182 227.589 203.685 227.682 203.112 227.682C202.54 227.682 202.038 227.589 201.609 227.402C201.18 227.209 200.847 226.941 200.61 226.597C200.374 226.254 200.256 225.853 200.256 225.395ZM201.287 225.319C201.287 225.606 201.362 225.856 201.512 226.071C201.663 226.286 201.874 226.454 202.146 226.576C202.425 226.69 202.747 226.747 203.112 226.747C203.477 226.747 203.796 226.69 204.068 226.576C204.34 226.454 204.551 226.286 204.701 226.071C204.852 225.856 204.927 225.606 204.927 225.319C204.927 224.89 204.762 224.55 204.433 224.299C204.104 224.042 203.66 223.913 203.101 223.913C202.55 223.913 202.11 224.042 201.781 224.299C201.452 224.55 201.287 224.89 201.287 225.319ZM201.502 221.755C201.502 222.134 201.645 222.438 201.931 222.667C202.225 222.897 202.615 223.011 203.101 223.011C203.588 223.011 203.975 222.9 204.261 222.678C204.547 222.449 204.69 222.149 204.69 221.776C204.69 221.404 204.547 221.111 204.261 220.896C203.975 220.674 203.588 220.563 203.101 220.563C202.615 220.563 202.225 220.674 201.931 220.896C201.645 221.111 201.502 221.397 201.502 221.755ZM211.401 225.094L209.586 227.553H208.362L210.585 224.6L210.821 224.675C210.614 224.826 210.395 224.94 210.166 225.019C209.944 225.098 209.719 225.137 209.49 225.137C208.953 225.137 208.481 225.019 208.073 224.783C207.672 224.546 207.357 224.224 207.128 223.816C206.906 223.408 206.795 222.947 206.795 222.431C206.795 221.894 206.917 221.418 207.16 221.003C207.41 220.581 207.747 220.252 208.169 220.015C208.599 219.772 209.082 219.65 209.619 219.65C210.156 219.65 210.639 219.776 211.068 220.026C211.505 220.27 211.848 220.602 212.099 221.025C212.349 221.44 212.475 221.912 212.475 222.442C212.475 222.743 212.439 223.029 212.367 223.301C212.303 223.566 212.192 223.841 212.034 224.128C211.877 224.407 211.666 224.729 211.401 225.094ZM211.401 222.431C211.401 222.073 211.326 221.758 211.176 221.486C211.025 221.207 210.814 220.989 210.542 220.831C210.277 220.674 209.969 220.595 209.619 220.595C209.275 220.595 208.971 220.674 208.706 220.831C208.441 220.989 208.234 221.207 208.083 221.486C207.933 221.758 207.858 222.073 207.858 222.431C207.858 222.782 207.933 223.097 208.083 223.376C208.234 223.648 208.441 223.863 208.706 224.02C208.971 224.171 209.275 224.246 209.619 224.246C209.969 224.246 210.277 224.171 210.542 224.02C210.814 223.863 211.025 223.648 211.176 223.376C211.326 223.097 211.401 222.782 211.401 222.431ZM213.487 225.158V224.257H216.762V225.158H213.487ZM218.654 220.735H217.022V219.79H219.663V227.553H218.654V220.735ZM226.183 227.542L220.944 227.553V226.747L223.445 224.589C223.76 224.325 224.021 224.085 224.229 223.87C224.437 223.655 224.601 223.458 224.723 223.279C224.845 223.093 224.931 222.911 224.981 222.732C225.031 222.553 225.056 222.36 225.056 222.152C225.056 221.665 224.923 221.286 224.659 221.014C224.401 220.735 224.036 220.595 223.563 220.595C223.084 220.595 222.697 220.76 222.404 221.089C222.117 221.411 221.971 221.848 221.964 222.399H220.911C220.926 221.848 221.044 221.365 221.266 220.95C221.488 220.534 221.795 220.216 222.189 219.994C222.59 219.765 223.052 219.65 223.574 219.65C224.097 219.65 224.548 219.751 224.927 219.951C225.306 220.151 225.6 220.434 225.807 220.799C226.022 221.157 226.129 221.587 226.129 222.088C226.129 222.36 226.094 222.621 226.022 222.871C225.951 223.115 225.836 223.358 225.679 223.602C225.528 223.838 225.331 224.085 225.088 224.342C224.845 224.593 224.551 224.869 224.208 225.169L222.178 226.93L221.824 226.565H226.183V227.542ZM232.068 220.638L229.223 223.355L228.536 222.839L231.284 220.198L231.231 220.724H227.247V219.79H232.068V220.638ZM229.309 223.537H228.536V222.839C228.657 222.761 228.808 222.71 228.987 222.689C229.173 222.66 229.352 222.646 229.523 222.646C229.903 222.646 230.257 222.703 230.586 222.818C230.916 222.925 231.206 223.086 231.456 223.301C231.714 223.516 231.911 223.777 232.047 224.085C232.19 224.385 232.261 224.729 232.261 225.115C232.261 225.638 232.14 226.093 231.896 226.479C231.66 226.866 231.331 227.163 230.908 227.37C230.493 227.578 230.024 227.682 229.502 227.682C228.994 227.682 228.543 227.581 228.149 227.381C227.755 227.181 227.444 226.891 227.215 226.511C226.993 226.125 226.882 225.667 226.882 225.137H227.924C227.924 225.638 228.067 226.032 228.353 226.318C228.647 226.597 229.037 226.737 229.523 226.737C230.024 226.737 230.425 226.586 230.726 226.286C231.034 225.985 231.188 225.588 231.188 225.094C231.188 224.629 231.03 224.253 230.715 223.967C230.4 223.68 229.931 223.537 229.309 223.537Z" fill="#0B0B11"/>
<rect x="159.789" y="233.079" width="4.42105" height="22.7368" fill="#0B0B11"/>
<rect x="166.105" y="233.079" width="3.15789" height="22.7368" fill="#0B0B11"/>
<rect x="171.158" y="233.079" width="5.05263" height="22.7368" fill="#0B0B11"/>
<rect x="178.105" y="233.079" width="2.52632" height="22.7368" fill="#0B0B11"/>
<rect x="182.525" y="233.079" width="5.05263" height="22.7368" fill="#0B0B11"/>
<rect x="189.473" y="233.079" width="5.05263" height="22.7368" fill="#0B0B11"/>
<rect x="196.42" y="233.079" width="3.15789" height="22.7368" fill="#0B0B11"/>
<rect x="201.473" y="233.079" width="5.05263" height="22.7368" fill="#0B0B11"/>
<rect x="208.42" y="233.079" width="3.78947" height="22.7368" fill="#0B0B11"/>
<rect x="214.105" y="233.079" width="4.42105" height="22.7368" fill="#0B0B11"/>
<rect x="220.42" y="233.079" width="5.05263" height="22.7368" fill="#0B0B11"/>
<rect x="227.367" y="233.079" width="2.52632" height="22.7368" fill="#0B0B11"/>
<rect x="231.789" y="233.079" width="3.15789" height="22.7368" fill="#0B0B11"/>
<rect x="236.842" y="233.079" width="2.52632" height="22.7368" fill="#0B0B11"/>
<rect x="241.264" y="233.079" width="3.78947" height="22.7368" fill="#0B0B11"/>
<rect x="246.947" y="233.079" width="3.15789" height="22.7368" fill="#0B0B11"/>
<rect x="252" y="233.079" width="3.15789" height="22.7368" fill="#0B0B11"/>
<rect x="257.053" y="233.079" width="3.78947" height="22.7368" fill="#0B0B11"/>
<rect x="262.736" y="233.079" width="3.78947" height="22.7368" fill="#0B0B11"/>
<rect x="268.42" y="233.079" width="3.78947" height="22.7368" fill="#0B0B11"/>
<rect x="274.105" y="233.079" width="3.15789" height="22.7368" fill="#0B0B11"/>
<rect x="279.158" y="233.079" width="3.78947" height="22.7368" fill="#0B0B11"/>
<rect x="284.842" y="233.079" width="2.52632" height="22.7368" fill="#0B0B11"/>
<rect x="289.264" y="233.079" width="3.78947" height="22.7368" fill="#0B0B11"/>
<rect x="294.947" y="233.079" width="3.78947" height="22.7368" fill="#0B0B11"/>
<rect x="300.631" y="233.079" width="3.15789" height="22.7368" fill="#0B0B11"/>
<rect x="305.684" y="233.079" width="3.78947" height="22.7368" fill="#0B0B11"/>
<rect x="311.367" y="233.079" width="4.42105" height="22.7368" fill="#0B0B11"/>
<rect x="317.684" y="233.079" width="5.05263" height="22.7368" fill="#0B0B11"/>
<rect x="324.631" y="233.079" width="3.78947" height="22.7368" fill="#0B0B11"/>
<rect x="330.314" y="233.079" width="5.05263" height="22.7368" fill="#0B0B11"/>
<rect x="337.264" y="233.079" width="2.52632" height="22.7368" fill="#0B0B11"/>
<rect x="341.684" y="233.079" width="3.78947" height="22.7368" fill="#0B0B11"/>
<rect x="347.367" y="233.079" width="4.42105" height="22.7368" fill="#0B0B11"/>
<rect x="353.684" y="233.079" width="3.78947" height="22.7368" fill="#0B0B11"/>
<rect x="359.367" y="233.079" width="3.15789" height="22.7368" fill="#0B0B11"/>
</g>
<rect x="0.631579" y="1.55248" width="442.737" height="266.895" rx="5.68421" stroke="#5C28DF" stroke-opacity="0.5" stroke-width="1.26316"/>
<defs>
<filter id="filter0_b_1417_4267" x="-12.6316" y="-99.5002" width="469.263" height="162.947" filterUnits="userSpaceOnUse" color-interpolation-filters="sRGB">
<feFlood flood-opacity="0" result="BackgroundImageFix"/>
<feGaussianBlur in="BackgroundImageFix" stdDeviation="6.31579"/>
<feComposite in2="SourceAlpha" operator="in" result="effect1_backgroundBlur_1417_4267"/>
<feBlend mode="normal" in="SourceGraphic" in2="effect1_backgroundBlur_1417_4267" result="shape"/>
</filter>
<linearGradient id="paint0_linear_1417_4267" x1="0" y1="49.8947" x2="444" y2="49.8947" gradientUnits="userSpaceOnUse">
<stop stop-color="#7F5EFF"/>
<stop offset="1" stop-color="#997FFF"/>
</linearGradient>
<clipPath id="clip0_1417_4267">
<rect y="0.920898" width="444" height="268.158" rx="6.31579" fill="white"/>
</clipPath>
<clipPath id="clip1_1417_4267">
<rect width="188.842" height="137.684" fill="white" transform="matrix(-1 0 0 1 444 -86.8687)"/>
</clipPath>
</defs>
</svg>
