<svg width="62" height="76" viewBox="0 0 62 76" fill="none" xmlns="http://www.w3.org/2000/svg">
<path d="M7.87254 -0.00021876C3.53272 -0.00021876 0 3.52449 0 7.8512V68.1478C0 72.4745 3.53272 75.9992 7.87254 75.9992H54.1174C58.4572 75.9992 61.99 72.4747 61.99 68.1478V18.5672C61.99 18.5672 62.1138 17.1154 61.4817 15.7026C60.8891 14.3784 59.9234 13.4566 59.9234 13.4566C59.921 13.4534 59.9186 13.4501 59.9162 13.4469L48.4427 2.22649C48.4364 2.22009 48.43 2.21375 48.4236 2.20748C48.4236 2.20748 47.444 1.27749 45.9919 0.656233C44.2821 -0.0752733 42.5198 0.0019467 42.5198 0.0019467L42.546 -0.000488281L7.87254 -0.00021876Z" fill="#FF2116"/>
<path d="M7.87168 2.5791H42.5452C42.554 2.57919 42.5627 2.57919 42.5715 2.5791C42.5715 2.5791 43.958 2.5925 44.9721 3.0264C45.9482 3.44401 46.6403 4.07616 46.6449 4.0804C46.645 4.08041 46.6497 4.08527 46.6497 4.08527L58.0946 15.2795C58.0946 15.2795 58.7841 16.0053 59.1183 16.7523C59.3881 17.3551 59.4047 18.4582 59.4047 18.4582C59.4035 18.4764 59.4027 18.4946 59.4023 18.5128V68.1481C59.4023 71.0911 57.0683 73.4205 54.1165 73.4205H7.87168C4.9199 73.4205 2.58594 71.0913 2.58594 68.1481V7.85155C2.58594 4.90843 4.9199 2.5791 7.87168 2.5791Z" fill="#F5F5F5"/>
<path d="M15.4789 45.2494C13.6991 43.4749 15.6247 41.0365 20.8506 38.4472L24.1387 36.818L25.4197 34.0235C26.1243 32.4866 27.1758 29.9788 27.7565 28.4507L28.8123 25.6723L28.0847 23.6161C27.1901 21.0879 26.8711 17.2885 27.4387 15.9224C28.2075 14.0719 30.7257 14.2617 31.7227 16.2454C32.5013 17.7946 32.4217 20.6001 31.4988 24.1384L30.7421 27.0391L31.4086 28.1672C31.7752 28.7876 32.8459 30.2608 33.788 31.4409L35.5587 33.6369L37.7621 33.3503C44.7618 32.4396 47.1593 33.9874 47.1593 36.2065C47.1593 39.0074 41.663 39.2385 37.0476 36.0065C36.0091 35.2793 35.2959 34.5569 35.2959 34.5569C35.2959 34.5569 32.4045 35.1437 30.9808 35.5263C29.5114 35.9212 28.7782 36.1685 26.6257 36.8929C26.6257 36.8929 25.8705 37.9864 25.3783 38.7814C23.5473 41.739 21.4095 44.19 19.8827 45.0821C18.1733 46.0809 16.3812 46.149 15.4789 45.2494ZM18.272 44.2545C19.2725 43.638 21.2974 41.2502 22.6991 39.0341L23.2666 38.1368L20.6826 39.4322C16.6915 41.4329 14.8656 43.3185 15.8151 44.4591C16.3484 45.0998 16.9865 45.0467 18.272 44.2545ZM44.1964 36.9994C45.175 36.3161 45.0329 34.939 43.9266 34.3838C43.0657 33.9517 42.3717 33.8629 40.1352 33.8958C38.7608 33.9893 36.5507 34.2654 36.1761 34.3494C36.1761 34.3494 37.3902 35.186 37.9293 35.4936C38.6468 35.9022 40.3906 36.6607 41.6637 37.0492C42.9196 37.4325 43.646 37.3921 44.1964 36.9994ZM33.7726 32.6799C33.1803 32.0592 32.1733 30.7638 31.5348 29.8011C30.6997 28.7091 30.2809 27.9387 30.2809 27.9387C30.2809 27.9387 29.6705 29.8963 29.1697 31.0742L27.6073 34.9245L27.1543 35.7979C27.1543 35.7979 29.5625 35.0106 30.7878 34.6915C32.0856 34.3536 34.7194 33.8372 34.7194 33.8372L33.7726 32.6799ZM30.4133 19.2488C30.5644 17.9849 30.6285 16.723 30.2212 16.0866C29.0915 14.8553 27.728 15.8821 27.959 18.8094C28.0367 19.7941 28.2821 21.4776 28.6101 22.5152L29.2066 24.4016L29.6264 22.9808C29.8573 22.1993 30.2114 20.5199 30.4133 19.2488Z" fill="#FF2116"/>
<path d="M18.5059 53.4668H21.3954C22.3187 53.4668 23.0682 53.5549 23.6438 53.731C24.2194 53.9015 24.7039 54.285 25.0971 54.8817C25.4904 55.4727 25.687 56.1858 25.687 57.0211C25.687 57.7882 25.5274 58.4473 25.2083 58.9985C24.8891 59.5497 24.4588 59.9475 23.9174 60.1918C23.3816 60.4362 22.5552 60.5583 21.4382 60.5583H20.4379V65.1013H18.5059V53.4668ZM20.4379 54.9584V59.0156H21.3954C22.2503 59.0156 22.8402 58.8565 23.1651 58.5383C23.4956 58.22 23.6609 57.703 23.6609 56.987C23.6609 56.4528 23.5526 56.021 23.336 55.6914C23.1195 55.3562 22.8801 55.1516 22.6179 55.0777C22.3614 54.9981 21.9539 54.9583 21.3954 54.9583L20.4379 54.9584ZM27.166 53.4668H29.7905C31.0615 53.4668 32.0759 53.6912 32.834 54.1401C33.5977 54.589 34.1733 55.2567 34.5609 56.1432C34.9541 57.0296 35.1507 58.0126 35.1507 59.0923C35.1507 60.2287 34.974 61.243 34.6207 62.1352C34.273 63.0216 33.7373 63.7376 33.0135 64.2831C32.2954 64.8286 31.2695 65.1013 29.9358 65.1013H27.166V53.4668ZM29.0981 55.0095V63.5586H29.9017C31.0244 63.5586 31.8394 63.1722 32.3467 62.3994C32.8539 61.6209 33.1075 60.5839 33.1075 59.2883C33.1075 56.4358 32.0389 55.0095 29.9017 55.0095H29.0981ZM37.0059 53.4668H43.486V55.0095H38.9379V58.4871H42.5798V60.0299H38.9379V65.1013H37.0059V53.4668Z" fill="#2C2C2C"/>
</svg>
